<?xml version="1.0" encoding="UTF-8"?>
<!-- Generator: Adobe Illustrator 21.0.2, SVG Export Plug-In . SVG Version: 6.00 Build 0)  -->
<svg version="1.1" id="Layer_1" xmlns="http://www.w3.org/2000/svg" xmlns:xlink="http://www.w3.org/1999/xlink" x="0px" y="0px" viewBox="0 0 622.3 165.7" style="enable-background:new 0 0 622.3 165.7;" xml:space="preserve">
<style type="text/css">
	.st0{fill:#D7172F;}
</style>
<g>
	<g>
		<g>
			<rect x="557.1" class="st0" width="40" height="112.6"/>
			<path class="st0" d="M242.3,69.4h16.2l56.2,43.2h40h13.9h30.7l11.7-19.9h81l12.4,19.9H549L477.4,0h-52.1l-66,105.3l-64.7-49.8     L354.6,0H306l-45,41.4h-18.7V0h-40v112.6h40V69.4z M451.2,26.1l26,42.3H426L451.2,26.1z"/>
			<path class="st0" d="M56.4,92.7h81l12.4,19.9h44.5L122.7,0h-52L0,112.6h44.6L56.4,92.7z M96.5,26.1l25.9,42.3H71.3L96.5,26.1z"/>
		</g>
		<path class="st0" d="M29.7,131H0v34.7h9.4v-13.5h20.3c4.4,0,8.1-3.6,8.1-8.1v-5C37.7,134.6,34.1,131,29.7,131z M29,142.2    c0,2.1-2.1,2.2-2.1,2.2H9.5v-5.5h17.4c0,0,2.1,0,2.1,2.2V142.2z"/>
		<path class="st0" d="M89.8,147.8c0.1-0.1,0.1-0.2,0.2-0.4c0-0.1,0.1-0.2,0.1-0.3c0.4-0.9,0.6-1.8,0.6-2.9v-5.1    c0-1.7-0.5-3.2-1.4-4.5c-1.4-2.2-3.9-3.6-6.7-3.6H53v34.7h9.4v-13.5h13.2l8.4,13.5h9.6l-8.4-14C87.2,151.1,88.8,149.7,89.8,147.8z     M81.8,142.2c0,2.1-2.1,2.2-2.1,2.2H62.3v-5.5h17.4c0,0,2.1,0,2.1,2.2V142.2z"/>
		<path class="st0" d="M138.2,131h-24.1c-4.5,0-8.1,3.6-8.1,8.1v18.4c0,4.5,3.6,8.2,8.1,8.2h24.1c4.4,0,8.1-3.8,8.1-8.2v-18.4    C146.3,134.6,142.7,131,138.2,131z M137,155.5c0,1.3-1,2.3-2.3,2.3h-17.1c-1.3,0-2.3-1-2.3-2.3v-14.4c0-1.2,1-2.3,2.3-2.3h17.1    c1.2,0,2.3,1,2.3,2.3V155.5z"/>
		<polygon class="st0" points="161.6,165.7 171,165.7 171,152.2 196.9,152.2 196.9,144.4 171,144.4 171,139 199.2,139 199.2,131     161.6,131   "/>
		<polygon class="st0" points="214.5,165.7 252.1,165.7 252.1,157.7 223.8,157.7 223.8,152.2 249.8,152.2 249.8,144.4 223.8,144.4     223.8,138.9 252.1,138.9 252.1,131 214.5,131   "/>
		<path class="st0" d="M297.6,144.4h-19.4c0,0-2.1-0.1-2.1-2.2v-1.1c0-2.2,2.1-2.2,2.1-2.2h25V131h-27.7c-4.4,0-8.1,3.6-8.1,8.1v5    c0,4.3,3.4,7.8,7.7,8h20c0,0,2.1,0,2.1,2.2v1.1c0,2.1-2.1,2.2-2.1,2.2h-26.5v8.1h29c4.4,0,8.1-3.8,8.1-8.2v-5    C305.7,148,302.1,144.4,297.6,144.4z"/>
		<path class="st0" d="M348.9,144.4h-19.3c0,0-2.1-0.1-2.1-2.2v-1.1c0-2.2,2.1-2.2,2.1-2.2h24.9V131h-27.7c-4.4,0-8.1,3.6-8.1,8.1v5    c0,4.3,3.4,7.8,7.7,8h18.7c0,0,3.3,0,3.3,2.2v1.1c0,2.1-3.3,2.2-3.3,2.2h-25.2v8.1h28.9c4.5,0,8.1-3.8,8.1-8.2v-5    C356.9,148,353.3,144.4,348.9,144.4z"/>
		<rect x="369.7" y="131" class="st0" width="10.2" height="34.7"/>
		<path class="st0" d="M427.5,131h-24.1c-4.5,0-8.1,3.6-8.1,8.1v18.4c0,4.5,3.6,8.2,8.1,8.2h24.1c4.5,0,8.1-3.8,8.1-8.2v-18.4    C435.6,134.6,432,131,427.5,131z M426.3,155.5c0,1.3-1,2.3-2.3,2.3h-17.1c-1.3,0-2.3-1-2.3-2.3v-14.4c0-1.2,1-2.3,2.3-2.3H424    c1.2,0,2.3,1,2.3,2.3V155.5z"/>
		<polygon class="st0" points="478.3,153.7 463.9,131 450.9,131 450.9,165.7 460.5,165.7 460.5,142.7 475.1,165.7 487.9,165.7     487.9,131 478.3,131   "/>
		<path class="st0" d="M515.7,131L500,165.7h10.7l2.7-6h19.4l2.7,6h10.7L530.5,131H515.7z M516.8,152.3l6.3-14l6.3,14H516.8z"/>
		<polygon class="st0" points="568.3,157.7 568.3,131 559,131 559,165.7 595.4,165.7 595.4,157.7   "/>
	</g>
	<g>
		<path class="st0" d="M616,8.4c1.3-0.5,1.9-1.1,1.9-2.2c0-1-0.6-1.9-1.5-2.2c-0.5-0.2-0.9-0.2-2.1-0.2h-3.8v8.8h2V9.1h1.3    c1.5,0,1.9,0.5,2,2.4c0.1,0.7,0.1,0.9,0.2,1.1h1.9c-0.2-0.5-0.3-0.5-0.4-1.5C617.5,9.2,617.2,8.8,616,8.4 M614.2,7.7h-1.8V5.3h1.8    c1.2,0,1.7,0.3,1.7,1.1C615.9,7.3,615.3,7.7,614.2,7.7"/>
		<path class="st0" d="M614.3,0.2c-4.6,0-8.2,3.6-8.2,8.1c0,4.4,3.6,8.1,8.1,8.1c4.5,0,8.1-3.6,8.1-8.1    C622.3,3.9,618.7,0.2,614.3,0.2 M614.2,15c-3.6,0-6.6-3-6.6-6.7c0-3.7,2.9-6.7,6.5-6.7c3.7,0,6.6,3,6.6,6.8    C620.7,12,617.8,15,614.2,15"/>
	</g>
</g>
</svg>