<?xml version="1.0" standalone="no"?>
<!DOCTYPE svg PUBLIC "-//W3C//DTD SVG 1.1//EN" "http://www.w3.org/Graphics/SVG/1.1/DTD/svg11.dtd" >
<svg>
<metadata>
Created by FontForge 20120731 at Mon Jun 19 08:12:35 2017
 By www
Copyright  1990, 2001 Adobe Systems Incorporated.  All Rights Reserved.
</metadata>
<defs>
<font id="CheltenhamITCW01-BoldCn" horiz-adv-x="500" >
  <font-face 
    font-family="CheltenhamITCW01-BoldCn"
    font-weight="400"
    font-stretch="normal"
    units-per-em="1000"
    panose-1="2 4 7 3 5 5 5 2 4 4"
    ascent="707"
    descent="-293"
    x-height="480"
    cap-height="700"
    bbox="-85 -250 1000 971"
    underline-thickness="50"
    underline-position="-100"
    unicode-range="U+0020-2122"
  />
<missing-glyph horiz-adv-x="250" 
 />
    <glyph glyph-name=".notdef" horiz-adv-x="250" 
 />
    <glyph glyph-name=".null" horiz-adv-x="0" 
 />
    <glyph glyph-name="nonmarkingreturn" horiz-adv-x="333" 
 />
    <glyph glyph-name="space" unicode=" " horiz-adv-x="250" 
 />
    <glyph glyph-name="exclam" unicode="!" horiz-adv-x="278" 
d="M115 202q-8 91 -17.5 156t-17.5 110.5t-13.5 75t-5.5 50.5q0 26 4 48t13 38t24 25t37 9q43 0 60.5 -34t17.5 -86q0 -21 -5.5 -50.5t-13.5 -75t-17 -110.5t-17 -156h-49zM66 74q0 39 21.5 63.5t53.5 24.5t53.5 -24.5t21.5 -63.5t-21.5 -63.5t-53.5 -24.5t-53.5 24.5
t-21.5 63.5z" />
    <glyph glyph-name="quotedbl" unicode="&#x22;" horiz-adv-x="333" 
d="M75 714q27 0 38 -14.5t11 -31.5q0 -60 -6.5 -119.5t-12.5 -119.5q-1 -6 -8 -18.5t-22 -12.5t-22 12.5t-8 18.5q-5 60 -12 119.5t-7 119.5q0 17 11.5 31.5t37.5 14.5zM258 714q27 0 38 -14.5t11 -31.5q0 -60 -6.5 -119.5t-12.5 -119.5q-1 -6 -8 -18.5t-22 -12.5t-22 12.5
t-8 18.5q-5 60 -12 119.5t-7 119.5q0 17 11.5 31.5t37.5 14.5z" />
    <glyph glyph-name="numbersign" unicode="#" 
d="M468 200h-92l-28 -200h-94l27 200h-96l-28 -200h-94l27 200h-87v90h100l17 120h-87v90h99l28 200h94l-27 -200h96l28 200h94l-27 -200h79v-90h-91l-17 -120h79v-90zM215 410l-17 -120h96l17 120h-96z" />
    <glyph glyph-name="dollar" unicode="$" 
d="M275 769v-64q34 0 64.5 -11t53 -29.5t35.5 -41.5t13 -47q0 -30 -16.5 -50t-51.5 -20q-31 0 -45.5 15.5t-14.5 38.5q0 18 9 33t9 29q0 20 -18 28t-38 9v-212q34 -13 70 -29t65 -40t47.5 -60t18.5 -88q0 -43 -14.5 -83t-41 -71t-63.5 -51t-82 -22v-85h-60v83q-38 0 -73 14
t-62.5 37t-44 53t-16.5 62q0 38 21.5 63t56.5 25q32 0 52 -19.5t20 -47.5q0 -21 -7 -34.5t-16 -22.5t-16 -15.5t-7 -14.5q0 -20 27 -31.5t65 -12.5v258q-22 8 -52 21t-57 35t-46 55.5t-19 82.5q0 72 41.5 124t132.5 72v64h60zM215 655q-29 -7 -49.5 -31t-20.5 -59
q0 -38 18 -58.5t52 -37.5v186zM275 61q41 8 64 36.5t23 78.5q0 26 -7 45.5t-19 33.5t-28 24t-33 17v-235z" />
    <glyph glyph-name="percent" unicode="%" horiz-adv-x="722" 
d="M173 309q26 0 34.5 50t8.5 140t-8.5 139.5t-34.5 49.5t-34.5 -49.5t-8.5 -139.5t8.5 -140t34.5 -50zM177 -14h-59l414 728h56zM549 12q26 0 34.5 50t8.5 140t-8.5 139.5t-34.5 49.5t-34.5 -49.5t-8.5 -139.5t8.5 -140t34.5 -50zM172 283q-37 0 -63 16.5t-42.5 45
t-24.5 68t-8 86.5q0 46 8 85.5t24.5 68t42.5 45t63 16.5t63.5 -16.5t43.5 -45t25 -68t8 -85.5q0 -47 -8 -86.5t-25 -68t-43.5 -45t-63.5 -16.5zM548 -14q-37 0 -63 16.5t-42.5 45t-24.5 68t-8 86.5q0 46 8 85.5t24.5 68t42.5 45t63 16.5t63.5 -16.5t43.5 -45t25 -68t8 -85.5
q0 -47 -8 -86.5t-25 -68t-43.5 -45t-63.5 -16.5z" />
    <glyph glyph-name="ampersand" unicode="&#x26;" horiz-adv-x="722" 
d="M650 374v-31q0 -10 -5.5 -13t-13 -7t-16 -12.5t-14.5 -29.5q-8 -23 -24.5 -59t-42.5 -71q26 -34 46.5 -54.5t42.5 -20.5q12 0 23 5.5t26 16.5l31 -31q-30 -42 -62 -54.5t-61 -12.5q-32 0 -64.5 13.5t-57.5 37.5q-14 -14 -30.5 -25.5t-37 -20.5t-46.5 -14t-59 -5
q-57 0 -102 15t-76 42t-47.5 64t-16.5 82q0 33 13 64t36 57t54 46t67 32q-21 36 -37 76t-16 91q0 37 14 67t38.5 50t58.5 31t74 11q32 0 61 -11t51.5 -30t36 -45.5t13.5 -57.5q0 -38 -12.5 -65t-33 -47t-46.5 -35t-52 -29q13 -22 29.5 -48t34.5 -52t36 -51t35 -45
q15 21 22.5 45.5t7.5 36.5q0 21 -9 29.5t-20 12t-20 6.5t-9 13v33h180zM189 243q0 -39 14 -73t36 -60t48 -41t49 -15q26 0 46.5 12.5t31.5 23.5q-21 22 -43 51.5t-44.5 62t-44 67t-40.5 67.5q-11 -8 -21 -16t-17 -18.5t-11 -25t-4 -35.5zM333 443q18 9 35 20.5t30 27.5
t21 36.5t8 46.5q0 38 -18 63t-58 25q-32 0 -52.5 -22t-20.5 -58q0 -31 15 -62.5t40 -76.5z" />
    <glyph glyph-name="quotesingle" unicode="'" horiz-adv-x="222" 
d="M111 714q27 0 38 -14.5t11 -31.5q0 -60 -6.5 -119.5t-12.5 -119.5q-1 -6 -8 -18.5t-22 -12.5t-22 12.5t-8 18.5q-5 60 -12 119.5t-7 119.5q0 17 11.5 31.5t37.5 14.5z" />
    <glyph glyph-name="parenleft" unicode="(" horiz-adv-x="444" 
d="M405 676q-56 -7 -91.5 -40.5t-56 -88t-28.5 -128.5t-8 -162t6.5 -161.5t26 -128.5t55.5 -88.5t96 -40.5v-38q-72 0 -130.5 37.5t-100 101t-63.5 146t-22 172.5q0 101 24 181t66.5 138t100.5 93t125 45v-38z" />
    <glyph glyph-name="parenright" unicode=")" horiz-adv-x="444" 
d="M39 714q72 0 130.5 -37.5t100 -101t63.5 -146t22 -172.5q0 -101 -24 -181t-66.5 -138t-100.5 -93t-125 -45v38q56 7 91.5 40.5t56 88t28.5 128.5t8 162t-6.5 161.5t-26 128t-55.5 88t-96 41.5v38z" />
    <glyph glyph-name="asterisk" unicode="*" 
d="M434 565l-141 -45v-4l144 -34l-57 -96l-106 102l-3 -3l35 -153h-112l35 153l-3 3l-106 -102l-57 96l144 34v4l-141 45l62 93l98 -110l3 3l-35 149h112l-35 -149l3 -3l98 110z" />
    <glyph glyph-name="plus" unicode="+" horiz-adv-x="600" 
d="M247 480h106v-187h187v-106h-187v-187h-106v187h-187v106h187v187z" />
    <glyph glyph-name="comma" unicode="," horiz-adv-x="250" 
d="M46 -145q8 7 22.5 22t29 33.5t26.5 39.5t15 42q-23 3 -40 12.5t-28 22.5t-16.5 29t-5.5 31q0 37 22.5 60.5t54.5 23.5q39 0 62 -30.5t23 -80.5q0 -57 -34.5 -118t-95.5 -120z" />
    <glyph glyph-name="hyphen" unicode="-" horiz-adv-x="333" 
d="M42 191v98h249v-98h-249z" />
    <glyph glyph-name="period" unicode="." horiz-adv-x="250" 
d="M50 80q0 39 21.5 63.5t53.5 24.5t53.5 -24.5t21.5 -63.5t-21.5 -63.5t-53.5 -24.5t-53.5 24.5t-21.5 63.5z" />
    <glyph glyph-name="slash" unicode="/" horiz-adv-x="278" 
d="M38 -14h-86l290 728h84z" />
    <glyph glyph-name="zero" unicode="0" 
d="M250 -14q-58 0 -99 27.5t-67.5 76.5t-39 116t-12.5 145t12.5 144t39 115t67.5 76.5t99 27.5t99 -27.5t67.5 -76.5t39 -115t12.5 -144t-12.5 -145t-39 -116t-67.5 -76.5t-99 -27.5zM250 32q20 0 33.5 21.5t21 62.5t10.5 100t3 134t-3 134t-10.5 100t-21 62.5t-33.5 21.5
t-33.5 -21.5t-21 -62.5t-10.5 -100t-3 -134t3 -134t10.5 -100t21 -62.5t33.5 -21.5z" />
    <glyph glyph-name="one" unicode="1" 
d="M96 612v40l141 56h91v-600q0 -29 11 -40t24 -15.5t24 -7.5t11 -15v-30h-286v30q0 12 11 15t24 7.5t24 15.5t11 40v504h-86z" />
    <glyph glyph-name="two" unicode="2" 
d="M420 0h-392v82q53 72 92.5 124t67.5 90.5t45.5 68t28 56t14 55t3.5 66.5q0 63 -27.5 94.5t-65.5 31.5q-26 0 -39.5 -11t-13.5 -24q0 -11 7.5 -20t16.5 -20t16.5 -25t7.5 -35q0 -27 -18.5 -48t-53.5 -21t-56.5 26t-21.5 66q0 28 13 56.5t38 51t61 36.5t82 14
q45 0 82.5 -14t64.5 -40t42 -63t15 -83q0 -56 -25.5 -93.5t-68 -75.5t-99 -88t-119.5 -131h117q44 0 69 8.5t39 22t19.5 28.5t10.5 28.5t12.5 22t24.5 8.5h20z" />
    <glyph glyph-name="three" unicode="3" 
d="M146 404q19 0 44 3.5t47 17t37.5 40.5t15.5 75q0 26 -5 49.5t-16 41t-28 27.5t-41 10t-37 -9t-13 -20q0 -9 6.5 -15.5t15 -15.5t15 -21.5t6.5 -32.5q0 -33 -22 -52t-54 -19q-29 0 -51.5 19.5t-22.5 64.5q0 29 13 55.5t38 47t61.5 32.5t83.5 12q46 0 82.5 -13.5t62 -37
t39 -55t13.5 -67.5q0 -48 -20 -78t-47 -47t-56 -24t-47 -10v-4q33 -6 67 -14t61.5 -27t45.5 -51.5t18 -86.5q0 -44 -16.5 -83t-48 -68t-77.5 -45.5t-105 -16.5q-43 0 -77 12t-57 31.5t-35.5 43.5t-12.5 48t7.5 41t20 28t28 16t31.5 5q33 0 54 -20.5t21 -52.5
q0 -21 -7.5 -32.5t-16 -19.5t-16 -13.5t-7.5 -14.5q0 -8 12.5 -17t36.5 -9q53 0 78 44.5t25 114.5q0 57 -12.5 88.5t-33.5 47t-48 19.5t-56 6v52z" />
    <glyph glyph-name="four" unicode="4" 
d="M472 257v-58h-78v-117q0 -20 7 -26.5t15 -9.5t15 -8.5t7 -23.5v-14h-244v30q0 12 8.5 15t18.5 7.5t18.5 15.5t8.5 40v91h-241v51l278 458h109v-451h78zM248 542h-4l-172 -285h176v285z" />
    <glyph glyph-name="five" unicode="5" 
d="M316 700q28 0 38.5 10.5t15.5 23.5h34v-160h-277l-7 -164q9 7 20 16t25.5 17t32 13t39.5 5q41 0 80 -15t69 -44.5t48.5 -73t18.5 -100.5q0 -55 -18.5 -100t-50.5 -76.5t-76 -48.5t-95 -17q-40 0 -72 11t-54.5 29.5t-34.5 43t-12 52.5q0 38 19.5 62.5t57.5 24.5
q36 0 54.5 -21.5t18.5 -48.5q0 -17 -5.5 -28.5t-11.5 -20t-11.5 -15.5t-5.5 -16q0 -13 12 -20t29 -7q27 0 46.5 14t33 37.5t20 53t6.5 61.5q0 94 -28 141.5t-81 47.5q-21 0 -36 -7.5t-25.5 -17.5t-17 -21.5t-10.5 -18.5l-38 22l12 356h237z" />
    <glyph glyph-name="six" unicode="6" 
d="M316 224q0 82 -15.5 119.5t-52.5 37.5q-22 0 -38.5 -13.5t-18.5 -28.5t-2.5 -29.5t-0.5 -44.5q0 -70 3.5 -115t11 -71.5t20 -36.5t29.5 -10q34 0 49 47.5t15 144.5zM287 443q41 0 73.5 -18t55 -49t34.5 -72.5t12 -87.5q0 -42 -12 -83t-37 -73.5t-63.5 -53t-90.5 -20.5
q-55 0 -96.5 25.5t-69 70.5t-41.5 107t-14 136q0 72 15.5 142t47.5 124.5t81 88.5t117 34q37 0 65.5 -10.5t48 -27.5t29 -38.5t9.5 -43.5q0 -31 -19.5 -55.5t-51.5 -24.5q-33 0 -50 21.5t-17 44.5q0 15 3.5 25t7.5 17.5t7.5 13t3.5 12.5q0 8 -5.5 14t-22.5 6q-27 0 -48 -20
t-35.5 -55.5t-23 -83.5t-9.5 -105q20 19 42 29t54 10z" />
    <glyph glyph-name="seven" unicode="7" 
d="M470 627q-24 -26 -53.5 -70t-56 -99.5t-44.5 -118.5t-18 -127q0 -24 2.5 -42.5t5.5 -35t5.5 -32.5t2.5 -34q0 -33 -20 -57.5t-55 -24.5q-48 0 -67.5 31t-19.5 73q0 55 24.5 122t59.5 133t73.5 126t66.5 103h-134q-37 0 -59.5 -9t-35 -22t-18.5 -29t-11.5 -29t-13.5 -22
t-24 -9h-22v260q20 -6 40 -10t43 -4h329v-73z" />
    <glyph glyph-name="eight" unicode="8" 
d="M258 714q39 0 72.5 -11.5t58 -33t38.5 -52t14 -68.5q0 -32 -9 -56.5t-25 -43t-36.5 -32.5t-44.5 -26q29 -19 53 -37.5t41.5 -41.5t27.5 -53t10 -71q0 -39 -16.5 -75.5t-45.5 -64.5t-69.5 -45t-88.5 -17q-40 0 -76 13t-63.5 37.5t-44 59.5t-16.5 78q0 54 32.5 95.5
t81.5 71.5q-30 24 -48.5 47t-29 46.5t-14.5 47.5t-4 48q0 39 14 72.5t40 58t63.5 39t84.5 14.5zM332 140q0 28 -8.5 49.5t-25.5 40t-42 36.5t-58 41q-17 -17 -33.5 -49.5t-16.5 -82.5q0 -29 5 -55t16.5 -45.5t29 -31t43.5 -11.5q44 0 67 31t23 77zM172 570q0 -21 3.5 -37
t15.5 -32.5t34 -35.5t58 -45q25 23 41.5 54t16.5 75q0 52 -22 85.5t-64 33.5q-38 0 -60.5 -25.5t-22.5 -72.5z" />
    <glyph glyph-name="nine" unicode="9" 
d="M184 476q0 -82 15.5 -119.5t52.5 -37.5q22 0 38.5 13.5t18.5 28.5t2.5 29.5t0.5 44.5q0 70 -3.5 115t-11 71t-20 36.5t-29.5 10.5q-34 0 -49 -47.5t-15 -144.5zM213 257q-41 0 -73.5 18t-55 49t-34.5 72t-12 88q0 42 12 83t37 73.5t63.5 53t90.5 20.5q55 0 96.5 -25.5
t69 -70.5t41.5 -107.5t14 -135.5q0 -72 -15.5 -142t-47.5 -124.5t-81 -88.5t-117 -34q-38 0 -66 10.5t-47.5 27.5t-29 38.5t-9.5 43.5q0 31 19.5 55.5t51.5 24.5q33 0 50 -21.5t17 -44.5q0 -15 -3.5 -25t-7.5 -17.5t-7.5 -13t-3.5 -12.5q0 -8 5.5 -14t22.5 -6q27 0 48 20
t35.5 55.5t22.5 83.5t10 105q-20 -19 -42 -29t-54 -10z" />
    <glyph glyph-name="colon" unicode=":" horiz-adv-x="250" 
d="M50 80q0 39 21.5 63.5t53.5 24.5t53.5 -24.5t21.5 -63.5t-21.5 -63.5t-53.5 -24.5t-53.5 24.5t-21.5 63.5zM50 390q0 39 21.5 63.5t53.5 24.5t53.5 -24.5t21.5 -63.5t-21.5 -63.5t-53.5 -24.5t-53.5 24.5t-21.5 63.5z" />
    <glyph glyph-name="semicolon" unicode=";" horiz-adv-x="250" 
d="M46 -145q8 7 22.5 22t29 33.5t26.5 39.5t15 42q-23 3 -40 12.5t-28 22.5t-16.5 29t-5.5 31q0 37 22.5 60.5t54.5 23.5q39 0 62 -30.5t23 -80.5q0 -57 -34.5 -118t-95.5 -120zM50 390q0 39 21.5 63.5t53.5 24.5t53.5 -24.5t21.5 -63.5t-21.5 -63.5t-53.5 -24.5t-53.5 24.5
t-21.5 63.5z" />
    <glyph glyph-name="less" unicode="&#x3c;" horiz-adv-x="600" 
d="M540 -8l-480 205v86l480 205v-104l-341 -144l341 -145v-103z" />
    <glyph glyph-name="equal" unicode="=" horiz-adv-x="600" 
d="M540 289h-480v106h480v-106zM540 85h-480v106h480v-106z" />
    <glyph glyph-name="greater" unicode="&#x3e;" horiz-adv-x="600" 
d="M60 488l480 -205v-86l-480 -205v104l341 144l-341 145v103z" />
    <glyph glyph-name="question" unicode="?" 
d="M190 206v48q0 40 15.5 71.5t34 63.5t34 71t15.5 95q0 57 -23.5 85t-52.5 28q-33 0 -33 -19q0 -7 4 -14.5t9 -16t9 -19t4 -23.5q0 -31 -19.5 -51.5t-50.5 -20.5q-34 0 -53 24.5t-19 54.5q0 34 15 58.5t39.5 40.5t55.5 24t63 8q33 0 68 -8t64 -27t47.5 -52t18.5 -82
q0 -41 -14 -69t-35 -49.5t-45.5 -38t-45.5 -35t-35 -40.5t-14 -54v-53h-56zM144 74q0 39 21.5 63.5t53.5 24.5t53.5 -24.5t21.5 -63.5t-21.5 -63.5t-53.5 -24.5t-53.5 24.5t-21.5 63.5z" />
    <glyph glyph-name="at" unicode="@" horiz-adv-x="800" 
d="M494 421q2 9 3.5 19t1.5 24q0 21 -16.5 34.5t-39.5 13.5q-31 0 -55.5 -21.5t-42 -57t-26.5 -81t-9 -92.5q0 -12 3 -24t9 -21.5t15.5 -16t23.5 -6.5q19 0 35 9.5t28.5 24.5t21.5 32.5t15 34.5zM657 70q-58 -43 -119.5 -63.5t-136.5 -20.5q-90 0 -160.5 28t-120 77
t-75.5 115.5t-26 143.5q0 78 28.5 144.5t81.5 115t128.5 76.5t168.5 28q69 0 133 -21t113.5 -60t79 -95t29.5 -126q0 -51 -17 -99.5t-48 -86t-74.5 -60t-96.5 -22.5q-12 0 -27 4.5t-27.5 13.5t-22 22t-10.5 30q-22 -38 -53 -54t-63 -16q-36 0 -61.5 13t-42 34t-24 48.5
t-7.5 57.5q0 54 17 102t46.5 83.5t69.5 56.5t87 21q28 0 52.5 -13t40.5 -39l10 34h102l-77 -297q-3 -11 -4.5 -19.5t-1.5 -10.5q0 -23 23 -23q27 0 55.5 14.5t52 42t38.5 68t15 91.5q0 59 -23 106.5t-64 81.5t-97.5 52t-124.5 18t-125 -22t-98 -63.5t-64 -100.5t-23 -132
q0 -68 19.5 -126t56.5 -100t91.5 -66t124.5 -24q33 0 66 5.5t62.5 14.5t55 21.5t43.5 27.5z" />
    <glyph glyph-name="A" unicode="A" horiz-adv-x="556" 
d="M135 184l-17 -55q-4 -14 -5.5 -26t-1.5 -17q0 -16 8.5 -23t18 -11.5t18 -9.5t8.5 -17v-25h-178v25q0 12 6.5 15.5t16.5 9t20.5 17t19.5 39.5l141 467q4 12 4 23q0 20 -6.5 33.5t-6.5 19.5q0 5 2 8t10 8l75 41q6 3 10.5 5.5t12.5 2.5q11 0 16 -15l208 -615q6 -18 15 -25
t18 -10.5t15 -6.5t6 -12v-30h-248v20q0 15 7 21t16 9.5t16 7.5t7 15q0 12 -8 36l-26 75h-198zM312 246l-80 255h-4l-73 -255h157z" />
    <glyph glyph-name="B" unicode="B" horiz-adv-x="611" 
d="M34 0v31q0 11 7 13t16 4.5t16 10t7 28.5v526q0 21 -7 28.5t-16 10t-16 4.5t-7 13v31h299q104 0 156.5 -43t52.5 -119q0 -38 -13.5 -67t-36 -49t-52 -31t-61.5 -14v-4q37 -2 73.5 -13t65 -32.5t46 -55.5t17.5 -82q0 -34 -12.5 -68t-41 -61t-75 -44t-114.5 -17h-304z
M226 62h53q39 0 65.5 9t43 25.5t24 38.5t7.5 49q0 78 -35 115.5t-105 37.5h-53v-275zM226 399h44q33 0 56 10t37.5 27t21.5 39t7 47q0 61 -29.5 93.5t-92.5 32.5h-44v-249z" />
    <glyph glyph-name="C" unicode="C" horiz-adv-x="556" 
d="M507 458h-29q-15 0 -23 15t-14.5 38t-12.5 49t-17.5 49t-29.5 38t-48 15q-41 0 -67.5 -25.5t-42 -67.5t-21.5 -96t-6 -111q0 -62 6 -118.5t21.5 -100t42.5 -69.5t68 -26q40 0 64.5 20t38.5 47t19.5 56t7.5 47l58 -37q-14 -93 -62.5 -144t-125.5 -51t-133.5 30.5
t-93.5 81.5t-55 116.5t-18 134.5q0 70 17.5 135.5t51.5 116.5t84 82t115 31q31 0 55.5 -8t42 -17t28.5 -17t16 -8q10 0 14.5 7t6.5 13h42v-226z" />
    <glyph glyph-name="D" unicode="D" horiz-adv-x="667" 
d="M226 52h69q47 0 80.5 11.5t54.5 44t31 90.5t10 152q0 79 -9.5 135.5t-30 92.5t-53.5 53t-79 17h-73v-596zM80 613q0 21 -7 28.5t-16 10t-16 4.5t-7 13v31h263q87 0 150.5 -27t105 -74t61 -111t19.5 -138q0 -83 -21.5 -148t-63.5 -110t-102.5 -68.5t-138.5 -23.5h-273v31
q0 11 7 13t16 4.5t16 10t7 28.5v526z" />
    <glyph glyph-name="E" unicode="E" horiz-adv-x="556" 
d="M80 613q0 21 -7 28.5t-16 10t-16 4.5t-7 13v31h340q31 0 60 2t51 12v-207h-24q-18 0 -26 10.5t-13 26t-9.5 34t-14.5 34t-29.5 26t-53.5 10.5h-89v-257h38q24 0 37 5.5t19 13.5t8.5 17.5t5 17.5t8 13.5t18.5 5.5h28v-202h-28q-13 0 -18.5 5.5t-8 13.5t-5 17.5t-8.5 17.5
t-19 13.5t-37 5.5h-38v-283h97q39 0 63 8t38 20.5t20.5 28t9.5 31.5q2 11 4 23t6 22.5t12 17.5t22 7h24v-210h-488v31q0 11 7 13t16 4.5t16 10t7 28.5v526z" />
    <glyph glyph-name="F" unicode="F" 
d="M80 613q0 21 -7 28.5t-16 10t-16 4.5t-7 13v31h342q31 0 60 2t51 12v-207h-24q-18 0 -26 10.5t-13 26t-9.5 34t-14.5 34t-29.5 26t-53.5 10.5h-91v-257h47q24 0 37 5.5t19 13.5t8.5 17.5t5 17.5t8 13.5t18.5 5.5h28v-202h-28q-13 0 -18.5 5.5t-8 13.5t-5 17.5t-8.5 17.5
t-19 13.5t-37 5.5h-47v-248q0 -21 8.5 -28.5t18 -10t18 -4.5t8.5 -13v-31h-245v31q0 11 7 13t16 4.5t16 10t7 28.5v526z" />
    <glyph glyph-name="G" unicode="G" horiz-adv-x="611" 
d="M550 115q0 -12 5.5 -17.5t21.5 -5.5v-21q-10 -14 -29.5 -29t-49.5 -27.5t-71 -20.5t-94 -8q-77 0 -133.5 30.5t-93.5 81.5t-55 116.5t-18 135.5t17.5 135.5t51.5 116.5t84 81.5t115 30.5q37 0 64.5 -8t46.5 -17t30.5 -17t16.5 -8q10 0 14.5 7t6.5 13h42v-226h-29
q-15 0 -23 15t-15 38t-15 49t-21.5 49t-35.5 38t-57 15q-39 0 -64 -22t-40 -64t-21 -104t-6 -141q0 -146 29 -219.5t100 -73.5q44 0 62 26.5t18 88.5v76q0 27 -8 38t-17.5 15t-17.5 6.5t-8 13.5v35h214q-5 -8 -11 -17t-6 -22v-183z" />
    <glyph glyph-name="H" unicode="H" horiz-adv-x="667" 
d="M226 332v-245q0 -21 7 -28.5t16 -10t16 -4.5t7 -13v-31h-238v31q0 11 7 13t16 4.5t16 10t7 28.5v526q0 21 -7 28.5t-16 10t-16 4.5t-7 13v31h238v-31q0 -11 -7 -13t-16 -4.5t-16 -10t-7 -28.5v-219h215v219q0 21 -7 28.5t-16 10t-16 4.5t-7 13v31h238v-31q0 -11 -7 -13
t-16 -4.5t-16 -10t-7 -28.5v-526q0 -21 7 -28.5t16 -10t16 -4.5t7 -13v-31h-238v31q0 11 7 13t16 4.5t16 10t7 28.5v245h-215z" />
    <glyph glyph-name="I" unicode="I" horiz-adv-x="333" 
d="M93 613q0 21 -7 28.5t-15.5 10t-15.5 4.5t-7 13v31h236v-31q0 -11 -7 -13t-15.5 -4.5t-15.5 -10t-7 -28.5v-526q0 -21 7 -28.5t15.5 -10t15.5 -4.5t7 -13v-31h-236v31q0 11 7 13t15.5 4.5t15.5 10t7 28.5v526z" />
    <glyph glyph-name="J" unicode="J" horiz-adv-x="444" 
d="M372 198q0 -59 -12.5 -99.5t-38 -65.5t-63.5 -36t-88 -11q-31 0 -62.5 7.5t-57 25t-42 47t-16.5 73.5q0 38 19 64.5t55 26.5q34 0 53 -20t19 -52q0 -18 -4.5 -30t-10 -20.5t-10 -16.5t-4.5 -18q0 -12 12.5 -23.5t35.5 -11.5q30 0 49.5 19t19.5 70v486q0 21 -7 28.5
t-15.5 10t-15.5 4.5t-7 13v31h236v-31q0 -11 -7 -13t-15.5 -4.5t-15.5 -10t-7 -28.5v-415z" />
    <glyph glyph-name="K" unicode="K" horiz-adv-x="611" 
d="M242 418l162 181q11 12 15 19t4 14t-6 10.5t-13 6.5t-13 7t-6 13v31h200v-30q0 -12 -6.5 -15t-18 -6t-26.5 -9.5t-32 -25.5l-149 -164l182 -325q19 -33 34.5 -48t27 -22.5t18 -12.5t6.5 -19v-23h-268v30q0 8 6.5 12.5t15 9t15 9.5t6.5 14q0 10 -5.5 22t-11.5 23l-121 230
l-16 -20v-243q0 -21 7 -28.5t16 -10t16 -4.5t7 -13v-31h-238v31q0 11 7 13t16 4.5t16 10t7 28.5v526q0 21 -7 28.5t-16 10t-16 4.5t-7 13v31h238v-31q0 -11 -7 -13t-16 -4.5t-16 -10t-7 -28.5v-195z" />
    <glyph glyph-name="L" unicode="L" 
d="M96 613q0 21 -7 28.5t-16 10t-16 4.5t-7 13v31h238v-31q0 -11 -7 -13t-16 -4.5t-16 -10t-7 -28.5v-561h57q39 0 63 8t38 20.5t20.5 28t9.5 31.5q2 11 4 23t6 22.5t12 17.5t22 7h24v-210h-448v31q0 11 7 13t16 4.5t16 10t7 28.5v526z" />
    <glyph glyph-name="M" unicode="M" horiz-adv-x="778" 
d="M743 700v-31q0 -11 -7 -13t-15.5 -4.5t-15.5 -10t-7 -28.5v-526q0 -21 7 -28.5t15.5 -10t15.5 -4.5t7 -13v-31h-236v31q0 11 7 13t15.5 4.5t15.5 10t7 28.5v481h-4l-163 -568h-68l-163 568h-4v-481q0 -21 8.5 -28.5t18 -10.5t18 -6t8.5 -15v-27h-176v27q0 12 8.5 15t18 6
t18 10.5t8.5 28.5v526q0 21 -7 28.5t-15.5 10t-15.5 4.5t-7 13v31h216l136 -462h4l134 462h218z" />
    <glyph glyph-name="N" unicode="N" horiz-adv-x="611" 
d="M469 271h4v342q0 21 -7.5 28.5t-17 10t-17 5.5t-7.5 15v28h168v-28q0 -12 -7.5 -15t-17 -5.5t-17 -10t-7.5 -28.5v-613h-69l-333 574h-4v-487q0 -21 7.5 -28.5t17 -10t17 -5.5t7.5 -15v-28h-168v28q0 12 7.5 15t17 5.5t17 10t7.5 28.5v526q0 21 -6.5 28.5t-15 10t-15 4.5
t-6.5 13v31h199z" />
    <glyph glyph-name="O" unicode="O" horiz-adv-x="667" 
d="M333 714q77 0 133.5 -30.5t93.5 -81.5t55 -116.5t18 -135.5t-18 -135.5t-55 -116.5t-93.5 -81.5t-133.5 -30.5t-133.5 30.5t-93.5 81.5t-55 116.5t-18 135.5t18 135.5t55 116.5t93.5 81.5t133.5 30.5zM471 350q0 60 -6 116.5t-21.5 100t-42.5 69.5t-68 26t-68 -26
t-42.5 -69t-21.5 -99.5t-6 -117.5t6 -117.5t21.5 -99.5t42.5 -69t68 -26t68 26t42.5 69.5t21.5 100t6 116.5z" />
    <glyph glyph-name="P" unicode="P" horiz-adv-x="519" 
d="M80 613q0 21 -7 28.5t-16 10t-16 4.5t-7 13v31h251q106 0 166 -50t60 -144t-60 -144t-166 -50h-59v-225q0 -21 7 -28.5t16 -10t16 -4.5t7 -13v-31h-238v31q0 11 7 13t16 4.5t16 10t7 28.5v526zM226 364h15q21 0 42 2t38.5 15.5t28.5 42.5t11 82t-11 82t-28.5 42.5
t-38.5 15.5t-42 2h-15v-284z" />
    <glyph glyph-name="Q" unicode="Q" horiz-adv-x="667" 
d="M654 -132q-18 -26 -52.5 -47t-88.5 -21q-58 0 -97.5 26.5t-69 60.5t-53 65t-47.5 40q-57 21 -97.5 58t-66 84.5t-37.5 103t-12 112.5q0 70 18 135.5t55 116.5t93.5 81.5t133.5 30.5t133.5 -30.5t93.5 -81.5t55 -116.5t18 -135.5q0 -69 -17.5 -131.5t-54 -111t-92.5 -80.5
t-132 -41v-4q45 -10 82 -26.5t66 -33t52 -28.5t41 -12q12 0 21.5 5t19.5 13zM333 662q-41 0 -68 -26t-42.5 -69t-21.5 -99.5t-6 -117.5t6 -117.5t21.5 -99.5t42.5 -69t68 -26t68 26t42.5 69.5t21.5 100t6 116.5t-6 116.5t-21.5 100t-42.5 69.5t-68 26z" />
    <glyph glyph-name="R" unicode="R" horiz-adv-x="556" 
d="M80 613q0 21 -7 28.5t-16 10t-16 4.5t-7 13v31h271q59 0 98 -16t62.5 -41t33.5 -57t10 -63q0 -32 -9.5 -62.5t-30 -54t-51 -38t-72.5 -14.5h-16v-6q22 -5 36.5 -11t24.5 -15.5t17 -22.5t16 -30l94 -183q10 -20 20 -30t18 -14.5t13 -7t5 -7.5v-27h-174l-135 292
q-9 19 -17.5 26t-21.5 8v-239q0 -21 7 -28.5t16 -10t16 -4.5t7 -13v-31h-238v31q0 11 7 13t16 4.5t16 10t7 28.5v526zM226 378q33 1 58 4t41.5 16.5t25 40t8.5 74.5t-8.5 74.5t-25 40t-41.5 16.5t-58 4v-270z" />
    <glyph glyph-name="S" unicode="S" horiz-adv-x="556" 
d="M53 244h22q19 0 29 -15.5t18 -38t16 -49.5t22.5 -49.5t38 -38t62.5 -15.5q56 0 86 35t30 86q0 44 -24 71.5t-59.5 47.5t-77 38t-77 43t-59.5 61.5t-24 94.5q0 41 16 77.5t43.5 63.5t64 42.5t77.5 15.5q29 0 49.5 -5.5t34.5 -12.5t24 -12.5t18 -5.5q13 0 18.5 5t8.5 10h46
v-208h-30q-17 0 -27 13t-17.5 33t-15 42.5t-19.5 42.5t-30.5 33t-47.5 13q-39 0 -63 -23.5t-24 -61.5q0 -39 24 -63.5t59.5 -44t77 -38t77 -44.5t59.5 -64t24 -97q0 -38 -13.5 -80.5t-42.5 -78t-73.5 -58.5t-107.5 -23q-31 0 -55 5.5t-41.5 11.5t-28.5 11.5t-17 5.5
q-16 0 -19 -14h-52v238z" />
    <glyph glyph-name="T" unicode="T" horiz-adv-x="556" 
d="M205 648h-49q-21 0 -34 -6t-21 -16.5t-11.5 -23.5t-5.5 -27t-4.5 -27t-7.5 -23t-13.5 -16.5t-23.5 -6.5h-19v212q17 -5 35 -9.5t38 -4.5h378q17 0 36 4t37 10v-212h-19q-15 0 -23.5 6.5t-13.5 16.5t-7.5 23t-4.5 27t-5.5 27t-11.5 23.5t-21 16.5t-34 6h-49v-561
q0 -21 8.5 -28.5t18.5 -10t18.5 -4.5t8.5 -13v-31h-254v31q0 11 8.5 13t18.5 4.5t18.5 10t8.5 28.5v561z" />
    <glyph glyph-name="U" unicode="U" horiz-adv-x="611" 
d="M264 700v-31q0 -11 -7 -13t-16 -4.5t-16 -10t-7 -28.5v-397q0 -39 5 -70.5t18.5 -53t38.5 -33t66 -11.5q39 0 64.5 9.5t40 28.5t20.5 47t6 66v414q0 21 -7 28.5t-16 10t-16 4.5t-7 13v31h162v-31q0 -11 -7 -13t-16 -4.5t-16 -10t-7 -28.5v-414q0 -111 -58 -162t-192 -51
q-124 0 -178.5 53t-54.5 152v422q0 21 -7 28.5t-16 10t-16 4.5t-7 13v31h246z" />
    <glyph glyph-name="V" unicode="V" horiz-adv-x="556" 
d="M240 -6l-202 614q-6 19 -15.5 27t-18.5 12t-15 7t-6 13v33h256v-30q0 -9 -8.5 -13t-18.5 -7.5t-18.5 -9.5t-8.5 -18q0 -11 3.5 -22.5t7.5 -24.5l122 -384h4l122 397q2 8 5 16.5t3 17.5q0 12 -7.5 17t-17 7.5t-17 6t-7.5 14.5v33h170v-31q0 -11 -6.5 -13.5t-15 -5.5
t-17.5 -9t-14 -23l-201 -624h-79z" />
    <glyph glyph-name="W" unicode="W" horiz-adv-x="778" 
d="M581 -6h-71l-121 463h-4l-122 -463h-74l-155 603q-7 27 -16 38.5t-17 17t-13.5 8.5t-5.5 13v26h238v-28q0 -9 -7 -13t-15 -8t-15 -11t-7 -23q0 -9 2 -19.5t5 -21.5l82 -347h4l87 331q-4 15 -7 29.5t-7.5 26t-13.5 20t-25 12.5q-6 2 -11 7.5t-5 13.5v31h252v-34
q0 -12 -8 -15t-17.5 -5t-17.5 -7.5t-8 -21.5q0 -10 2.5 -20t4.5 -19l91 -349h4l81 340q4 15 7 28t3 24q0 12 -8 17t-17.5 9t-17.5 8.5t-8 15.5v29h166v-30q0 -12 -6 -15t-14 -6.5t-16.5 -11t-14.5 -28.5z" />
    <glyph glyph-name="X" unicode="X" horiz-adv-x="556" 
d="M270 700v-28q0 -10 -7.5 -13.5t-16.5 -6t-16.5 -7t-7.5 -15.5q0 -5 3.5 -14.5t13.5 -29.5l64 -127l80 137q8 14 11 21t3 12q0 11 -7 15.5t-15.5 7.5t-15.5 7t-7 13v28h186v-30q0 -9 -8 -12t-19.5 -6.5t-25 -11t-24.5 -25.5l-127 -213l156 -304q11 -21 23.5 -30.5
t23.5 -14.5t18.5 -8.5t7.5 -13.5v-31h-264v28q0 11 7 15t16 7t16 7.5t7 18.5q0 11 -6 26.5t-21 44.5l-67 124l-80 -133q-9 -14 -16.5 -31t-7.5 -28q0 -14 6.5 -20t15 -9.5t15 -7.5t6.5 -15v-27h-188v27q0 10 7 13.5t18.5 8.5t25 14.5t25.5 30.5l142 236l-152 292
q-8 16 -18 22.5t-18.5 9.5t-14 5t-5.5 9v32h258z" />
    <glyph glyph-name="Y" unicode="Y" 
d="M323 87q0 -21 6.5 -28.5t14 -10t14 -4.5t6.5 -13v-31h-228v31q0 11 6.5 13t14 4.5t14 10t6.5 28.5v222l-128 278q-14 30 -26.5 42.5t-22.5 18t-15.5 8t-5.5 12.5v32h261v-32q0 -9 -7.5 -12.5t-17 -6.5t-17 -8.5t-7.5 -17.5q0 -8 5.5 -23.5t22.5 -50.5l74 -154l72 145
q14 30 22 49.5t8 31.5q0 13 -7.5 18.5t-17 9t-17 7t-7.5 12.5v32h176v-28q0 -12 -5 -15t-13 -6.5t-20 -13.5t-25 -37l-136 -270v-243z" />
    <glyph glyph-name="Z" unicode="Z" 
d="M170 62h85q52 0 81.5 11.5t46 29t23 38t12.5 38t14.5 29t29.5 11.5h26v-219h-464v78l295 570h-55q-45 0 -72.5 -10.5t-43 -26t-22 -34t-12 -34t-12 -26t-20.5 -10.5h-26v207q20 -8 39 -11q21 -3 44 -3h333v-44z" />
    <glyph glyph-name="bracketleft" unicode="[" horiz-adv-x="444" 
d="M252 -105q0 -19 12.5 -26t28 -9t28 -4t12.5 -12v-30h-197v886h197v-30q0 -10 -12.5 -12t-28 -4t-28 -9t-12.5 -26v-724z" />
    <glyph glyph-name="backslash" unicode="\" horiz-adv-x="278" 
d="M-48 714h84l290 -728h-86z" />
    <glyph glyph-name="bracketright" unicode="]" horiz-adv-x="444" 
d="M308 -186h-197v30q0 10 12.5 12t28 4t28 9t12.5 26v724q0 19 -12.5 26t-28 9t-28 4t-12.5 12v30h197v-886z" />
    <glyph glyph-name="asciicircum" unicode="^" horiz-adv-x="600" 
d="M86 354l166 346h95l167 -346h-104l-110 240l-110 -240h-104z" />
    <glyph glyph-name="underscore" unicode="_" 
d="M0 -125v50h500v-50h-500z" />
    <glyph glyph-name="grave" unicode="`" horiz-adv-x="278" 
d="M154 539l-104 87q-16 14 -25 25.5t-9 26.5q0 22 15 33.5t31 11.5q27 0 47 -30l101 -154h-56z" />
    <glyph glyph-name="a" unicode="a" 
d="M422 109q0 -9 0.5 -19t3 -18t8 -13t16.5 -5q6 0 10 2t9 5l23 -18q-12 -31 -36.5 -44t-50.5 -13q-23 0 -39 6t-27 15.5t-18.5 20.5t-13.5 21l-23.5 -23.5t-26 -20t-33.5 -14t-44 -5.5q-33 0 -61 10.5t-48 29t-31 44.5t-11 57q0 46 19.5 76t54 50.5t82.5 34t105 27.5
q-1 26 -2.5 50t-8.5 42.5t-21.5 29.5t-39.5 11q-39 0 -39 -36q0 -8 1 -15t1 -15q0 -30 -16.5 -44t-42.5 -14q-29 0 -46 17.5t-17 47.5q0 21 10 40t29.5 33.5t47.5 23t64 8.5q42 0 80.5 -10t67.5 -33t46.5 -61.5t17.5 -96.5v-184zM290 263q-21 -3 -42.5 -11t-39 -23
t-28.5 -39t-11 -58q0 -32 11.5 -56t40.5 -24q32 0 50.5 27t18.5 78v106z" />
    <glyph glyph-name="b" unicode="b" 
d="M187 61q8 -8 20 -15.5t29 -7.5q18 0 31.5 10t22.5 32.5t13.5 60t4.5 92.5t-5 93t-15 61.5t-24 34t-32 10.5q-15 0 -26 -5t-19 -13v-353zM55 627q0 16 -7.5 21.5t-17 7.5t-17 5t-7.5 15v24h181v-233q17 10 40.5 18.5t53.5 8.5t60.5 -15t55.5 -46.5t41 -79.5t16 -114
q0 -54 -13 -100t-39 -80t-64 -53.5t-87 -19.5q-35 0 -63 11t-56 38l-45 -35h-32v627z" />
    <glyph glyph-name="c" unicode="c" horiz-adv-x="444" 
d="M417 111q-9 -39 -27.5 -63.5t-41.5 -38t-48.5 -18.5t-49.5 -5q-48 0 -88.5 19.5t-70.5 53.5t-46.5 80.5t-16.5 100.5t16.5 100.5t46.5 80.5t71 53.5t90 19.5q34 0 63.5 -9t51 -24.5t33.5 -37.5t12 -47q0 -28 -17.5 -49t-50.5 -21t-48.5 15.5t-15.5 35.5q0 12 3 20.5t6 15
l6 13t3 15.5q0 15 -11.5 21t-27.5 6q-26 0 -43 -16.5t-28 -45t-15.5 -65.5t-4.5 -77q0 -39 5.5 -75.5t18.5 -64.5t33.5 -45t49.5 -17q23 0 39.5 9t28 23.5t18.5 33t11 37.5z" />
    <glyph glyph-name="d" unicode="d" 
d="M295 404q-11 14 -25.5 21t-27.5 7q-24 0 -38.5 -16.5t-21.5 -43.5t-9 -61.5t-2 -70.5t2 -70.5t8.5 -61.5t19.5 -43.5t35 -16.5t36 11.5t23 22.5v322zM427 73q0 -16 7.5 -21.5t17 -7.5t17 -5t7.5 -15v-24h-176v31h-4q-9 -14 -31 -29.5t-65 -15.5q-39 0 -71 19.5
t-55.5 53.5t-36 80t-12.5 100q0 58 17 105t44 80.5t59.5 51.5t64.5 18q30 0 50.5 -8t34.5 -17v158q0 16 -7.5 21.5t-17 7.5t-17 5t-7.5 15v24h181v-627z" />
    <glyph glyph-name="e" unicode="e" 
d="M182 246v-39q0 -29 5 -58.5t17 -53t32.5 -38.5t50.5 -15q29 0 51 9.5t37.5 25.5t26 36t16.5 40l43 -31q-23 -69 -69 -102.5t-122 -33.5q-54 0 -98 19.5t-75 53.5t-48 80.5t-17 100.5t16.5 100.5t46 80.5t70 53.5t87.5 19.5q55 0 94 -19t63.5 -51t36 -73.5t11.5 -85.5v-19
h-275zM317 302v31q0 59 -15.5 82t-45.5 23q-22 0 -36 -10.5t-22.5 -29t-12 -43.5t-3.5 -53h135z" />
    <glyph glyph-name="f" unicode="f" horiz-adv-x="314" 
d="M31 418v27q0 12 7 15.5t15.5 6.5t16.5 10.5t10 27.5q5 57 15.5 92.5t31.5 63.5q17 23 48.5 38t70.5 15q63 0 92.5 -25.5t29.5 -64.5q0 -23 -15.5 -42.5t-47.5 -19.5q-28 0 -41.5 16t-13.5 36q0 14 4.5 23.5t4.5 17.5q0 13 -17 13t-23.5 -13.5t-6.5 -41.5v-133h92v-62h-92
v-343q0 -17 9.5 -22t21 -6.5t21 -5t9.5 -17.5v-24h-242v24q0 12 7.5 15t17 5t17 7.5t7.5 21.5v345h-49z" />
    <glyph glyph-name="g" unicode="g" horiz-adv-x="478" 
d="M115 152q-32 19 -56 62.5t-24 97.5q0 39 14 72.5t38.5 57.5t59 38t75.5 14t62 -8t39 -18q5 36 20.5 60t52.5 24q26 0 46 -16t20 -42q0 -18 -10 -35t-30 -17q-11 0 -17.5 2t-11 4.5t-7 4.5t-6.5 2q-11 0 -11 -9t8 -19.5t17 -25.5t17 -36t8 -51q0 -45 -14.5 -80t-40 -58.5
t-61 -35.5t-77.5 -12q-20 0 -32.5 2t-25.5 5l-41 -66q29 5 64 9.5t70 4.5q37 0 71 -8t60 -25.5t42 -43.5t16 -62t-18.5 -65t-50 -50t-72.5 -32t-86 -11q-36 0 -68 5t-56 15.5t-38.5 28t-14.5 41.5q0 29 18 46.5t48 17.5q28 0 44 -15t16 -32q0 -14 -8 -20.5t-8 -14.5
q0 -12 14.5 -19t52.5 -7q55 0 82 21t27 50q0 31 -29.5 50.5t-86.5 19.5q-21 0 -42 -3t-41 -6.5t-39.5 -6.5t-35.5 -3q-20 0 -29 9.5t-9 22.5q0 11 5.5 21t13.5 22zM283 310q0 23 -2 47.5t-8 44.5t-17 33t-29 13t-29 -13t-17 -33t-8 -44.5t-2 -47.5t2 -47.5t8 -44t17 -32
t29 -12.5t29 12.5t17 32t8 44t2 47.5z" />
    <glyph glyph-name="h" unicode="h" horiz-adv-x="537" 
d="M76 627q0 16 -7.5 21.5t-17 7.5t-17 5t-7.5 15v24h181v-258q29 25 59 38.5t65 13.5q57 0 93 -38t36 -111v-272q0 -16 7.5 -21.5t17 -7.5t17 -5t7.5 -15v-24h-223v24q0 12 6.5 15t14.5 5t14.5 7.5t6.5 21.5v278q0 77 -49 77q-23 0 -41 -14.5t-31 -31.5v-309
q0 -16 6.5 -21.5t14.5 -7.5t14.5 -5t6.5 -15v-24h-223v24q0 12 7.5 15t17 5t17 7.5t7.5 21.5v554z" />
    <glyph glyph-name="i" unicode="i" horiz-adv-x="284" 
d="M208 73q0 -16 7.5 -21.5t17 -7.5t17 -5t7.5 -15v-24h-230v24q0 12 7.5 15t17 5t17 7.5t7.5 21.5v334q0 16 -7.5 21.5t-17 7.5t-17 5t-7.5 15v24h181v-407zM133 536q-35 0 -55 25t-20 57t20 57t55 25t55 -25t20 -57t-20 -57t-55 -25z" />
    <glyph glyph-name="j" unicode="j" horiz-adv-x="278" 
d="M215 480v-450q0 -68 -16 -114.5t-42 -75t-58.5 -41.5t-64.5 -13q-47 0 -78 23.5t-31 61.5q0 29 17 47t46 18q26 0 41 -16t18 -35q4 -20 10 -31t18 -11t18 9t6 19q0 13 -2.5 24.5t-5.5 24.5t-5.5 27.5t-2.5 33.5v426q0 16 -7.5 21.5t-17 7.5t-17 5t-7.5 15v24h181z
M140 536q-35 0 -55 25t-20 57t20 57t55 25t55 -25t20 -57t-20 -57t-55 -25z" />
    <glyph glyph-name="k" unicode="k" 
d="M201 700v-422l101 93q11 9 18.5 19.5t7.5 18.5q0 12 -6.5 16t-15 6.5t-15 6t-6.5 15.5v27h194v-28q0 -10 -6.5 -14t-14.5 -7q-12 -5 -28 -16.5t-27 -22.5l-86 -81l141 -233q9 -14 17.5 -21t15.5 -11.5t11.5 -8.5t4.5 -13v-24h-230v24q0 10 4.5 14t10.5 7t10.5 7t4.5 13
q0 14 -22 51l-66 110l-18 -15v-138q0 -16 6 -21.5t12.5 -7.5t12.5 -5t6 -15v-24h-218v24q0 12 7.5 15t17 5t17 7.5t7.5 21.5v554q0 16 -7.5 21.5t-17 7.5t-17 5t-7.5 15v24h181z" />
    <glyph glyph-name="l" unicode="l" horiz-adv-x="278" 
d="M205 73q0 -16 7.5 -21.5t17 -7.5t17 -5t7.5 -15v-24h-230v24q0 12 7.5 15t17 5t17 7.5t7.5 21.5v554q0 16 -7.5 21.5t-17 7.5t-17 5t-7.5 15v24h181v-627z" />
    <glyph glyph-name="m" unicode="m" horiz-adv-x="778" 
d="M209 480v-33q51 47 120 47q36 0 64.5 -16t43.5 -39q31 26 61 40.5t72 14.5q28 0 52.5 -8.5t41.5 -27t27 -48.5t10 -72v-265q0 -16 7.5 -21.5t17 -7.5t17 -5t7.5 -15v-24h-223v24q0 12 6.5 15t14.5 5t14.5 7.5t6.5 21.5v282q0 32 -11.5 52.5t-37.5 20.5q-20 0 -36 -10.5
t-29 -27.5v-317q0 -16 5.5 -21.5t12 -7.5t12 -5t5.5 -15v-24h-202v24q0 12 5.5 15t12 5t12 7.5t5.5 21.5v282q0 32 -11.5 52.5t-37.5 20.5q-20 0 -36 -10.5t-29 -27.5v-317q0 -16 7.5 -21.5t17 -7.5t17 -5t7.5 -15v-24h-230v24q0 12 7.5 15t17 5t17 7.5t7.5 21.5v334
q0 16 -7.5 21.5t-17 7.5t-17 5t-7.5 15v24h181z" />
    <glyph glyph-name="n" unicode="n" horiz-adv-x="537" 
d="M76 407q0 16 -7.5 21.5t-17 7.5t-17 5t-7.5 15v24h181v-38q29 25 59 38.5t65 13.5q57 0 93 -38t36 -111v-272q0 -16 7.5 -21.5t17 -7.5t17 -5t7.5 -15v-24h-223v24q0 12 6.5 15t14.5 5t14.5 7.5t6.5 21.5v278q0 77 -49 77q-23 0 -41 -14.5t-31 -31.5v-309
q0 -16 6.5 -21.5t14.5 -7.5t14.5 -5t6.5 -15v-24h-223v24q0 12 7.5 15t17 5t17 7.5t7.5 21.5v334z" />
    <glyph glyph-name="o" unicode="o" 
d="M250 494q48 0 88.5 -19.5t70.5 -53.5t46.5 -80.5t16.5 -100.5t-16.5 -100.5t-46.5 -80.5t-70.5 -53.5t-88.5 -19.5t-88.5 19.5t-70.5 53.5t-46.5 80.5t-16.5 100.5t16.5 100.5t46.5 80.5t70.5 53.5t88.5 19.5zM250 32q23 0 37.5 15t22 42.5t10 66t2.5 85.5q0 46 -2.5 84
t-10 65.5t-22 42.5t-37.5 15t-37.5 -15t-22 -42.5t-10 -65.5t-2.5 -84q0 -47 2.5 -85.5t10 -66t22 -42.5t37.5 -15z" />
    <glyph glyph-name="p" unicode="p" 
d="M197 -127q0 -16 7.5 -21.5t17 -7.5t17 -5t7.5 -15v-24h-230v24q0 12 7.5 15t17 5t17 7.5t7.5 21.5v534q0 16 -7.5 21.5t-17 7.5t-17 5t-7.5 15v24h169v-24q22 19 45.5 28.5t52.5 9.5q32 0 64.5 -14.5t58.5 -45.5t42 -79t16 -115t-16.5 -115t-43 -79t-59.5 -45.5
t-65 -14.5q-27 0 -46 5.5t-37 13.5v-132zM197 67q22 -19 46 -19q25 0 40 17.5t22.5 44.5t10 60t2.5 65q0 36 -2.5 71.5t-10 63t-22 45t-39.5 17.5q-17 0 -28 -6.5t-19 -14.5v-344z" />
    <glyph glyph-name="q" unicode="q" 
d="M440 -127q0 -16 7.5 -21.5t17 -7.5t17 -5t7.5 -15v-24h-230v24q0 12 7.5 15t17 5t17 7.5t7.5 21.5v143q-19 -13 -42.5 -21.5t-51.5 -8.5q-38 0 -71.5 16.5t-58 49t-38.5 79.5t-14 109q0 64 16.5 112t43.5 79.5t62 47t73 15.5q41 0 74.5 -15t58.5 -38l43 39h37v-607z
M308 409q-21 23 -51 23q-44 0 -61.5 -52t-17.5 -140q0 -95 15.5 -143.5t56.5 -48.5q17 0 32 7.5t26 18.5v335z" />
    <glyph glyph-name="r" unicode="r" horiz-adv-x="389" 
d="M77 407q0 17 -7.5 22.5t-17 8t-17 5.5t-7.5 15v24h172v-127h4q14 31 26 57t25.5 44t30 28t38.5 10q32 0 52 -25t20 -60q0 -15 -4 -30t-12 -27t-20.5 -20t-30.5 -8q-15 0 -24 6.5t-15 14.5t-11.5 14.5t-12.5 6.5t-13.5 -11t-14.5 -26q-14 -24 -21.5 -51.5t-7.5 -54.5v-150
q0 -16 7.5 -21.5t17 -7.5t17 -5t7.5 -15v-24h-230v24q0 12 7.5 15t17 5t17 7.5t7.5 21.5v334z" />
    <glyph glyph-name="s" unicode="s" horiz-adv-x="444" 
d="M53 349q0 31 13.5 57.5t37 46t55.5 30.5t68 11q22 0 49 -4.5t50.5 -15.5t39 -28.5t15.5 -42.5q0 -28 -16.5 -45.5t-45.5 -17.5q-26 0 -42 13t-16 38q0 11 2.5 18.5t2.5 15.5q0 11 -9.5 17t-33.5 6q-20 0 -35 -12t-15 -39q0 -25 17 -42t42 -31t54.5 -27t54.5 -30.5t42 -42
t17 -60.5q0 -43 -16 -76t-43.5 -55.5t-64.5 -34.5t-78 -12q-36 0 -66.5 8t-53 22t-35 34.5t-12.5 45.5q0 28 16.5 49t51.5 21q27 0 43.5 -16t16.5 -43q0 -11 -4.5 -21.5t-4.5 -22.5q0 -11 10 -21t36 -10q39 0 61.5 20t22.5 53q0 24 -17 41t-42 31t-54.5 28t-54.5 33
t-42 45.5t-17 65.5z" />
    <glyph glyph-name="t" unicode="t" horiz-adv-x="333" 
d="M308 418h-104v-321q0 -18 8.5 -28.5t28.5 -10.5q13 0 24 5.5t21 11.5l32 -31q-23 -32 -55.5 -45t-68.5 -13q-35 0 -58.5 8.5t-37.5 24.5t-20 38.5t-6 51.5v309h-49v39q0 12 8.5 16t18 8.5t18 14t8.5 34.5q0 35 1 55.5t5.5 30.5t13.5 13t24 3l84 3v-155h104v-62z" />
    <glyph glyph-name="u" unicode="u" horiz-adv-x="537" 
d="M329 407q0 16 -7.5 21.5t-17 7.5t-17 5t-7.5 15v24h181v-407q0 -16 7.5 -21.5t17 -7.5t17 -5t7.5 -15v-24h-181v38q-20 -18 -47.5 -35t-72.5 -17q-39 0 -64.5 11.5t-40.5 32.5t-21.5 49.5t-6.5 62.5v265q0 16 -7.5 21.5t-17 7.5t-17 5t-7.5 15v24h181v-347
q0 -34 11 -57.5t40 -23.5q20 0 36 13.5t34 32.5v309z" />
    <glyph glyph-name="v" unicode="v" horiz-adv-x="444" 
d="M222 480v-31q0 -10 -8 -14t-18 -7t-18 -8.5t-8 -17.5q0 -8 2 -15.5t4 -13.5l83 -236h4l68 226q5 17 7 25t2 16q0 13 -7 18.5t-15.5 8.5t-15.5 6t-7 12v31h158v-25q0 -8 -6.5 -12t-14.5 -8.5t-16.5 -10.5t-12.5 -19l-133 -411h-91l-140 388q-9 24 -19.5 34t-19 14t-14.5 6
t-6 11v33h242z" />
    <glyph glyph-name="w" unicode="w" horiz-adv-x="611" 
d="M137 -6l-105 388q-6 21 -14.5 30.5t-17 14.5t-14.5 8t-6 12v33h226v-31q0 -7 -7 -10.5t-15.5 -7t-15.5 -9.5t-7 -18q0 -8 1.5 -15.5t3.5 -15.5l49 -209h4l95 322h60l81 -322h4l60 209q5 17 5 31q0 12 -7 18t-15.5 9.5t-15.5 7t-7 10.5v31h146v-25q0 -8 -4 -11t-10 -6
t-12.5 -10t-11.5 -23l-132 -411h-79l-74 272h-4l-83 -272h-78z" />
    <glyph glyph-name="x" unicode="x" 
d="M476 480v-29q0 -9 -5 -11t-14.5 -5t-22.5 -10.5t-28 -27.5l-100 -133l119 -182q14 -21 25 -29t19 -10t12 -4t4 -11v-28h-256v25q0 9 6.5 13t14.5 7.5t14.5 9t6.5 17.5q0 11 -9 25l-48 78l-58 -81q-10 -15 -10 -27q0 -11 6 -15.5t13 -8t13 -7.5t6 -14v-22h-178v28
q0 9 6 11t16.5 4.5t24 10t28.5 28.5l101 137l-117 178q-13 19 -23.5 26.5t-18.5 10.5t-12.5 5.5t-4.5 11.5v29h248v-26q0 -8 -6 -12t-12.5 -8t-12.5 -8.5t-6 -14.5q0 -8 4.5 -15.5t8.5 -13.5l44 -73l56 79q4 5 8.5 13t4.5 16q0 7 -5.5 10t-12 5.5t-12 6t-5.5 12.5v29h168z
" />
    <glyph glyph-name="y" unicode="y" horiz-adv-x="444" 
d="M46 382q-10 24 -20.5 34t-19 14t-14 6t-5.5 11v33h242v-31q0 -9 -7 -12t-15 -5.5t-15 -7t-7 -16.5q0 -8 3.5 -18t5.5 -17l75 -204h4l64 191q3 10 7 24.5t4 20.5q0 13 -7 18t-15.5 8t-15.5 6t-7 11v32h158v-25q0 -12 -6 -15.5t-14 -7t-18 -11t-17 -28.5l-156 -449
q-11 -30 -25 -58t-33 -50.5t-43 -36t-54 -13.5q-26 0 -43.5 8.5t-28.5 21.5t-16 28.5t-5 29.5q0 32 18.5 51t46.5 19q27 0 41 -17t16 -38q1 -9 4.5 -15t12.5 -6q6 0 12 5t13.5 18t17 36t22.5 58z" />
    <glyph glyph-name="z" unicode="z" horiz-adv-x="444" 
d="M412 418l-241 -366h82q32 0 50.5 8.5t29.5 20.5t17 27t11.5 27t13 20.5t23.5 8.5h19v-164h-396v51l245 377h-60q-31 0 -49.5 -7.5t-29 -19.5t-16 -25t-10 -25t-12 -19.5t-21.5 -7.5h-22v156h366v-62z" />
    <glyph glyph-name="braceleft" unicode="{" horiz-adv-x="444" 
d="M165 137q0 25 -3 44.5t-11 34t-22.5 24.5t-37.5 17q23 7 37.5 17.5t22.5 25t11 33.5t3 45v188q0 48 11 77t34 44.5t58.5 21t84.5 5.5v-12q-42 -13 -57 -44.5t-15 -86.5v-177q0 -28 -3.5 -50t-12.5 -38.5t-25 -28t-42 -18.5v-4q26 -7 42 -18t25 -27.5t12.5 -38.5t3.5 -50
v-178q0 -55 15 -86.5t57 -44.5v-12q-49 0 -84.5 5.5t-58.5 21.5t-34 45t-11 76v189z" />
    <glyph glyph-name="bar" unicode="|" horiz-adv-x="222" 
d="M66 750h90v-1000h-90v1000z" />
    <glyph glyph-name="braceright" unicode="}" horiz-adv-x="444" 
d="M279 377q0 -26 3 -45t11 -33.5t22.5 -24.5t37.5 -17q-23 -8 -37.5 -18t-22.5 -24.5t-11 -34t-3 -44.5v-188q0 -48 -11 -77t-34 -44.5t-58.5 -21t-84.5 -5.5v12q42 13 57 44.5t15 86.5v177q0 28 3.5 50t12.5 38t25 27.5t42 18.5v4q-26 7 -42 18.5t-25 28t-12.5 38.5
t-3.5 50v178q0 55 -15 86.5t-57 44.5v12q49 0 84.5 -5.5t58.5 -21.5t34 -45t11 -76v-189z" />
    <glyph glyph-name="asciitilde" unicode="~" horiz-adv-x="600" 
d="M531 240q-11 -16 -23.5 -31.5t-27 -27.5t-33 -19.5t-41.5 -7.5q-29 0 -55 10.5t-51.5 23.5t-52.5 23.5t-58 10.5q-17 0 -29.5 -6.5t-23 -16.5t-18 -23t-13.5 -26l-36 90q8 16 19.5 31.5t26.5 27.5t34.5 19.5t44.5 7.5q28 0 57.5 -10.5t57.5 -23.5t53.5 -23.5t44.5 -10.5
q15 0 27.5 6.5t23 16.5t19.5 23l18 26z" />
    <glyph glyph-name="uni00A0" unicode="&#xa0;" horiz-adv-x="250" 
 />
    <glyph glyph-name="exclamdown" unicode="&#xa1;" horiz-adv-x="278" 
d="M163 298q8 -91 17.5 -156t17.5 -110.5t13.5 -75t5.5 -50.5q0 -52 -17.5 -86t-60.5 -34q-22 0 -37 9t-24 25t-13 38t-4 48q0 21 5.5 50.5t13.5 75t17 110.5t17 156h49zM64 426q0 39 21.5 63.5t53.5 24.5t53.5 -24.5t21.5 -63.5t-21.5 -63.5t-53.5 -24.5t-53.5 24.5
t-21.5 63.5z" />
    <glyph glyph-name="cent" unicode="&#xa2;" 
d="M234 103q-42 6 -76.5 27t-59 54t-38.5 76t-14 93q0 49 14 91.5t38.5 75.5t59 54.5t76.5 28.5v97h56v-94q30 -3 56 -12.5t44.5 -25t29 -35.5t10.5 -44q0 -28 -17.5 -49t-50.5 -21t-48.5 15.5t-15.5 35.5q0 12 3 20.5t6 15l6 13t3 15.5q0 15 -11.5 21t-27.5 6
q-26 0 -43 -16.5t-27.5 -45t-14.5 -65.5t-4 -77q0 -39 5.5 -75.5t17.5 -64.5t32 -45t50 -17q23 0 39.5 9t28 23.5t18.5 33t11 37.5l45 -34q-8 -35 -23.5 -58t-35 -37t-42 -20.5t-44.5 -7.5v-101h-56v103z" />
    <glyph glyph-name="sterling" unicode="&#xa3;" 
d="M228 72q-19 18 -44.5 32t-50.5 14q-20 0 -31.5 -8.5t-11.5 -25.5q0 -18 17 -30t43 -12q31 0 50 9t28 21zM123 367q-10 10 -22.5 24t-24 33t-19 43.5t-7.5 55.5q0 41 15.5 76t42 60.5t62.5 40t78 14.5q39 0 69 -10t49.5 -26.5t29.5 -37t10 -41.5q0 -32 -18.5 -52
t-48.5 -20q-32 0 -48.5 17t-16.5 44q0 11 2.5 18t5.5 12t5.5 9.5t2.5 11.5q0 11 -9.5 20t-35.5 9q-27 0 -47 -23t-20 -63q0 -29 11.5 -58t30 -56.5t41.5 -53t46 -47.5h184v-56h-149q17 -29 28.5 -55t11.5 -64q0 -27 -10 -58t-38 -58q11 -9 27 -17.5t35 -8.5q29 0 49.5 23
t36.5 53l41 -36q-10 -19 -22.5 -36t-28 -30.5t-35 -21.5t-42.5 -8q-17 0 -32.5 4.5t-29.5 11t-25 13.5t-18 12q-32 -23 -68.5 -36t-86.5 -13q-34 0 -62 9t-47.5 24t-30.5 35t-11 43q0 47 32.5 73t80.5 26q45 0 84.5 -23.5t75.5 -50.5q5 9 8 17t3 22q0 21 -8 41t-20.5 38.5
t-29 36t-34.5 34.5h-165v56h112z" />
    <glyph glyph-name="currency" unicode="&#xa4;" 
d="M451 491q24 -23 35.5 -61.5t11.5 -79.5t-11.5 -79.5t-35.5 -61.5l58 -58l-61 -61l-56 57q-24 -20 -63 -32.5t-79 -12.5t-79 12.5t-63 32.5l-56 -57l-61 61l58 58q-24 23 -35.5 61.5t-11.5 79.5t11.5 79.5t35.5 61.5l-58 58l61 61l56 -57q24 20 63 32.5t79 12.5t79 -12.5
t63 -32.5l56 57l61 -61zM110 350q0 -29 11 -54.5t30 -44.5t44.5 -30t54.5 -11t54.5 11t44.5 30t30 44.5t11 54.5t-11 54.5t-30 44.5t-44.5 30t-54.5 11t-54.5 -11t-44.5 -30t-30 -44.5t-11 -54.5z" />
    <glyph glyph-name="yen" unicode="&#xa5;" 
d="M178 289v27l-19 45h-136v56h114l-69 170q-12 31 -23.5 43.5t-20.5 18t-14 7.5t-5 12v32h251v-32q0 -9 -6 -12.5t-13.5 -6.5t-13.5 -8.5t-6 -17.5q0 -11 3.5 -26.5t11.5 -37.5l62 -167l61 172q11 31 11 59q0 12 -6 17.5t-13.5 8.5t-13.5 6.5t-6 12.5v32h168v-28
q0 -12 -4.5 -14.5t-12.5 -6t-18.5 -13.5t-22.5 -38l-77 -183h119v-56h-142l-13 -31v-41h155v-56h-155v-146q0 -21 6.5 -28.5t14 -10t14 -4.5t6.5 -13v-31h-228v31q0 11 6.5 13t14 4.5t14 10t6.5 28.5v146h-155v56h155z" />
    <glyph glyph-name="brokenbar" unicode="&#xa6;" horiz-adv-x="222" 
d="M66 650h90v-300h-90v300zM156 -150h-90v300h90v-300z" />
    <glyph glyph-name="section" unicode="&#xa7;" 
d="M40 311q0 56 28.5 86t79.5 42q-11 8 -23 22t-21.5 31t-16 36.5t-6.5 39.5q0 70 46 108t127 38q41 0 71.5 -9.5t51 -25.5t31 -36.5t10.5 -41.5q0 -30 -20.5 -51t-49.5 -21q-34 0 -52 18.5t-18 42.5q0 17 5 27t11.5 16.5t11.5 11t5 10.5q0 11 -15.5 17t-30.5 6
q-38 0 -57 -16.5t-19 -46.5q0 -21 20 -43.5t50 -47t65.5 -52t65.5 -57.5t50 -64t20 -72q0 -14 -2 -32.5t-12 -37.5t-31.5 -35.5t-59.5 -26.5q9 -6 20 -14.5t21 -22t17 -32.5t7 -45q0 -31 -13 -58.5t-37 -48.5t-59.5 -33.5t-80.5 -12.5t-77 11t-51.5 28t-28.5 37t-9 39
q0 29 17.5 52t56.5 23q34 0 53 -18t19 -45q0 -13 -4.5 -22t-10.5 -16.5t-10.5 -13.5t-4.5 -13q0 -14 17.5 -20t38.5 -6q29 0 52.5 15t23.5 44q0 22 -20 44t-50.5 45.5t-65.5 49.5t-65.5 56t-50.5 65t-20 76zM130 363q0 -10 3 -19.5t11 -21.5t23 -27.5t38 -36.5
q33 -30 62 -50.5t49 -20.5t34 12t14 32q0 17 -17.5 43.5t-65.5 68.5q-40 34 -64 48t-42 14q-20 0 -32.5 -11.5t-12.5 -30.5z" />
    <glyph glyph-name="dieresis" unicode="&#xa8;" horiz-adv-x="278" 
d="M164 612q0 27 19 46t46 19t46 -19t19 -46t-19 -46t-46 -19t-46 19t-19 46zM-16 612q0 27 19 46t46 19t46 -19t19 -46t-19 -46t-46 -19t-46 19t-19 46z" />
    <glyph glyph-name="copyright" unicode="&#xa9;" horiz-adv-x="790" 
d="M395 46q64 0 119.5 24t97 65.5t65.5 97t24 119.5q0 63 -24 119t-65.5 97t-97 65t-119.5 24q-63 0 -119 -24t-97.5 -65t-65.5 -97t-24 -119q0 -64 24 -119.5t65.5 -97t97.5 -65.5t119 -24zM395 -18q-77 0 -144 29t-117.5 79t-79.5 117.5t-29 144.5q0 76 29 143.5
t79.5 117.5t117.5 79t144 29q76 0 143.5 -29t118 -79t79.5 -117.5t29 -143.5q0 -77 -29 -144.5t-79.5 -117.5t-118 -79t-143.5 -29zM544 414h-41q-7 18 -14.5 35t-18 30t-26 21t-38.5 8q-30 0 -50.5 -13.5t-33 -34.5t-18.5 -46.5t-6 -50.5q0 -29 7 -59.5t22.5 -55.5
t39.5 -41t59 -16q28 0 55 16.5t44 41.5l32 -11q-10 -25 -28.5 -43t-42 -29.5t-49.5 -17t-51 -5.5q-44 0 -80 15.5t-61 42.5t-38.5 64t-13.5 80q0 45 15 82.5t42 65t64.5 42.5t82.5 15q14 0 34 -2.5t41 -6.5t40.5 -9t31.5 -11v-107z" />
    <glyph glyph-name="ordfeminine" unicode="&#xaa;" horiz-adv-x="300" 
d="M265 483q0 -20 3.5 -26.5t14.5 -6.5q5 0 12 5l15 -11q-8 -19 -24 -26.5t-33 -7.5q-29 0 -42 12.5t-21 24.5q-11 -11 -30.5 -24t-52.5 -13q-44 0 -71 23t-27 61q0 28 12.5 46t35 30t53.5 20.5t69 16.5l-2 30t-5.5 26t-14 18t-25.5 7q-26 0 -26 -22q0 -5 1 -9.5t1 -9.5
q0 -18 -11 -26.5t-28 -8.5q-18 0 -29.5 10.5t-11.5 28.5q0 25 26 44t73 19q27 0 52 -6t44 -19.5t30.5 -37t11.5 -57.5v-111zM179 576q-14 -2 -27.5 -6.5t-25 -14t-18.5 -23.5t-7 -35q0 -17 9.5 -32t23.5 -15q22 0 33.5 17t11.5 39v70z" />
    <glyph glyph-name="guillemotleft" unicode="&#xab;" horiz-adv-x="509" 
d="M221 235v10l218 176q13 10 19 10q7 0 10 -5.5t3 -11.5q0 -8 -8.5 -24t-22 -34.5t-28.5 -38.5t-28.5 -36.5t-22 -28t-8.5 -12.5q0 -2 8.5 -12.5t22 -27t28.5 -36t28.5 -38.5t22 -35t8.5 -25q0 -6 -3 -11.5t-10 -5.5q-4 0 -7.5 2t-11.5 9zM27 235v10l218 176q13 10 19 10
q7 0 10 -5.5t3 -11.5q0 -8 -8.5 -24t-22 -34.5t-28.5 -38.5t-28.5 -36.5t-22 -28t-8.5 -12.5q0 -2 8.5 -12.5t22 -27t28.5 -36t28.5 -38.5t22 -35t8.5 -25q0 -6 -3 -11.5t-10 -5.5q-4 0 -7.5 2t-11.5 9z" />
    <glyph glyph-name="logicalnot" unicode="&#xac;" horiz-adv-x="600" 
d="M434 289h-374v106h480v-310h-106v204z" />
    <glyph glyph-name="uni00AD" unicode="&#xad;" horiz-adv-x="333" 
d="M42 191v98h249v-98h-249z" />
    <glyph glyph-name="registered" unicode="&#xae;" horiz-adv-x="790" 
d="M351 220q0 -12 3 -21.5t17 -9.5h21v-24h-174v24h25q14 0 17 9.5t3 21.5v277q0 12 -3 21.5t-17 9.5h-23v28h179q19 0 44.5 -2t48 -12t38 -30t15.5 -56q0 -20 -8.5 -36.5t-22 -29.5t-30.5 -21t-35 -11v-4q18 -1 32 -14t25.5 -31t21 -39t19.5 -39t20.5 -30t23.5 -12v-24h-76
q-20 0 -31.5 9.5t-25.5 38.5l-41 86q-9 20 -17 30t-22 10h-27v-119zM351 366h22q41 0 62.5 21t21.5 63q0 35 -18.5 55.5t-53.5 20.5h-22q-5 0 -8.5 -3.5t-3.5 -7.5v-149zM395 46q64 0 119.5 24t97 65.5t65.5 97t24 119.5q0 63 -24 119t-65.5 97t-97 65t-119.5 24
q-63 0 -119 -24t-97.5 -65t-65.5 -97t-24 -119q0 -64 24 -119.5t65.5 -97t97.5 -65.5t119 -24zM395 -18q-77 0 -144 29t-117.5 79t-79.5 117.5t-29 144.5q0 76 29 143.5t79.5 117.5t117.5 79t144 29q76 0 143.5 -29t118 -79t79.5 -117.5t29 -143.5q0 -77 -29 -144.5
t-79.5 -117.5t-118 -79t-143.5 -29z" />
    <glyph glyph-name="macron" unicode="&#xaf;" horiz-adv-x="278" 
d="M-3 575v68h284v-68h-284z" />
    <glyph glyph-name="degree" unicode="&#xb0;" horiz-adv-x="400" 
d="M200 666q-19 0 -35.5 -8t-29 -21.5t-20 -30.5t-7.5 -36t7.5 -36t20 -30.5t29 -21.5t35.5 -8t35.5 8t29 21.5t20 30.5t7.5 36t-7.5 36t-20 30.5t-29 21.5t-35.5 8zM200 714q30 0 56.5 -11t46 -30.5t30.5 -46t11 -56.5t-11 -56.5t-30.5 -46t-46 -30.5t-56.5 -11t-56.5 11
t-46 30.5t-30.5 46t-11 56.5t11 56.5t30.5 46t46 30.5t56.5 11z" />
    <glyph glyph-name="plusminus" unicode="&#xb1;" horiz-adv-x="600" 
d="M60 106h480v-106h-480v106zM247 618h106v-187h187v-106h-187v-187h-106v187h-187v106h187v187z" />
    <glyph glyph-name="uni00B2" unicode="&#xb2;" horiz-adv-x="342" 
d="M282 444h-257v52q17 21 31.5 39t27.5 33q32 39 52.5 65t32.5 47.5t16.5 42t4.5 48.5q0 37 -18 55.5t-43 18.5q-17 0 -26 -6t-9 -13q0 -8 12 -20q7 -7 13.5 -16t6.5 -24q0 -17 -12.5 -30.5t-35.5 -13.5t-37 16.5t-14 41.5q0 17 8.5 34.5t25 31t40 22t53.5 8.5
q60 0 97 -32.5t37 -89.5q0 -20 -6 -36t-17 -30t-26 -27t-33 -27q-26 -21 -57.5 -48t-62.5 -62h74q22 0 37 2.5t24.5 7.5t16 14t11.5 22q4 11 8.5 17.5t17.5 6.5h13z" />
    <glyph glyph-name="uni00B3" unicode="&#xb3;" horiz-adv-x="342" 
d="M103 690q12 0 28.5 2t31 10t24.5 24t10 44q0 31 -14 53t-45 22q-16 0 -24.5 -5t-8.5 -11t9 -13q7 -5 13 -13.5t6 -24.5q0 -20 -14 -32t-35 -12q-20 0 -34.5 12.5t-14.5 39.5q0 18 8.5 34t25 28.5t40.5 20t55 7.5q60 0 94.5 -30.5t34.5 -74.5q0 -27 -10.5 -44.5
t-25.5 -28.5t-32 -16.5t-31 -8.5q20 -3 40.5 -9t36.5 -17.5t26 -31t10 -50.5q0 -27 -11 -50.5t-31.5 -41t-50.5 -27.5t-69 -10q-28 0 -50 7.5t-37.5 19.5t-23.5 26.5t-8 29.5q0 29 18 42.5t39 13.5q22 0 35.5 -13t13.5 -33q0 -17 -6.5 -25.5t-13.5 -11.5q-11 -5 -11 -11
q0 -5 8 -9.5t24 -4.5q35 0 51.5 26t16.5 68q0 33 -8.5 51.5t-22 27.5t-31 11.5t-36.5 3.5v35z" />
    <glyph glyph-name="acute" unicode="&#xb4;" horiz-adv-x="278" 
d="M68 539l101 154q19 30 47 30q16 0 31 -11.5t15 -33.5q0 -15 -9 -26.5t-25 -25.5l-104 -87h-56z" />
    <glyph glyph-name="mu" unicode="&#xb5;" horiz-adv-x="537" 
d="M329 407q0 16 -7.5 21.5t-17 7.5t-17 5t-7.5 15v24h181v-407q0 -16 7.5 -21.5t17 -7.5t17 -5t7.5 -15v-24h-181v38q-20 -18 -47.5 -35t-73.5 -17v-186h-181v24q0 12 7.5 15t17 5t17 7.5t7.5 21.5v534q0 16 -7.5 21.5t-17 7.5t-17 5t-7.5 15v24h181v-347q0 -34 11 -57.5
t40 -23.5q20 0 36 13.5t34 32.5v309z" />
    <glyph glyph-name="paragraph" unicode="&#xb6;" 
d="M489 669q0 -11 -9 -13t-19.5 -4.5t-19 -10t-8.5 -28.5v-775h-98v802h-63v-802h-98v451q-38 0 -67.5 15.5t-50.5 43t-32 65t-11 81.5q0 53 12 92t38 64.5t68.5 37.5t104.5 12h253v-31z" />
    <glyph glyph-name="periodcentered" unicode="&#xb7;" horiz-adv-x="250" 
d="M43 240q0 34 24 58t58 24t58 -24t24 -58t-24 -58t-58 -24t-58 24t-24 58z" />
    <glyph glyph-name="cedilla" unicode="&#xb8;" horiz-adv-x="278" 
d="M142 -1l-27 -65q9 2 16.5 3t18.5 1q35 0 61.5 -18t26.5 -51q0 -22 -11.5 -38.5t-30 -28t-42 -17t-48.5 -5.5q-28 0 -51 4.5t-45 12.5l17 37q14 -7 29 -11.5t29 -4.5q31 0 46 12t15 31q0 17 -12 28t-31 11q-11 0 -19 -2t-15 -5l-9 8l43 98h39z" />
    <glyph glyph-name="uni00B9" unicode="&#xb9;" horiz-adv-x="342" 
d="M70 811v28l92 34h60v-362q0 -20 10 -25.5t20 -7.5q6 -2 11 -4.5t5 -9.5v-20h-188v20q0 6 5.5 9t10.5 5q10 2 20 7.5t10 25.5v300h-56z" />
    <glyph glyph-name="ordmasculine" unicode="&#xba;" horiz-adv-x="300" 
d="M150 714q31 0 57.5 -11.5t45.5 -32t30 -48t11 -60.5t-11 -60.5t-30 -48t-45.5 -32t-57.5 -11.5q-32 0 -58.5 11.5t-45.5 32t-30 48t-11 60.5t11 60.5t30 48t45.5 32t58.5 11.5zM150 688q-15 0 -24.5 -9t-14.5 -25.5t-6.5 -39.5t-1.5 -51q0 -57 8 -92t39 -35q30 0 38 35
t8 92q0 56 -8 90.5t-38 34.5z" />
    <glyph glyph-name="guillemotright" unicode="&#xbb;" horiz-adv-x="509" 
d="M264 60q-8 -7 -11.5 -9t-7.5 -2q-7 0 -10 5.5t-3 11.5q0 9 8.5 25t22 35t28.5 38.5t28.5 36t22 27t8.5 12.5q0 1 -8.5 12.5t-22 28t-28.5 36.5t-28.5 38.5t-22 34.5t-8.5 24q0 6 3 11.5t10 5.5q6 0 19 -10l218 -176v-10zM70 60q-8 -7 -11.5 -9t-7.5 -2q-7 0 -10 5.5
t-3 11.5q0 9 8.5 25t22 35t28.5 38.5t28.5 36t22 27t8.5 12.5q0 1 -8.5 12.5t-22 28t-28.5 36.5t-28.5 38.5t-22 34.5t-8.5 24q0 6 3 11.5t10 5.5q6 0 19 -10l218 -176v-10z" />
    <glyph glyph-name="onequarter" unicode="&#xbc;" horiz-adv-x="851" 
d="M70 643v28l92 34h60v-362q0 -20 10 -25.5t20 -7.5q6 -2 11 -4.5t5 -9.5v-20h-188v20q0 6 5.5 9t10.5 5q10 2 20 7.5t10 25.5v300h-56zM248 -14h-74l429 728h74zM825 158v-39h-51v-68q0 -8 2.5 -11.5t12.5 -7.5q5 -2 9.5 -6t4.5 -16v-10h-160v20q0 7 3.5 9.5t8.5 4.5
q8 2 15.5 8t7.5 25v52h-157v34l183 276h70v-271h51zM678 326l-113 -168h113v168z" />
    <glyph glyph-name="onehalf" unicode="&#xbd;" horiz-adv-x="851" 
d="M70 643v28l92 34h60v-362q0 -20 10 -25.5t20 -7.5q6 -2 11 -4.5t5 -9.5v-20h-188v20q0 6 5.5 9t10.5 5q10 2 20 7.5t10 25.5v300h-56zM248 -14h-74l429 728h74zM791 0h-257v52q17 21 31.5 39t27.5 33q32 39 52.5 65t32.5 47.5t16.5 42t4.5 48.5q0 37 -18 55.5t-43 18.5
q-17 0 -26 -6t-9 -13q0 -8 12 -20q7 -7 13.5 -16t6.5 -24q0 -17 -12.5 -30.5t-35.5 -13.5t-37 16.5t-14 41.5q0 17 8.5 34.5t25 31t40 22t53.5 8.5q60 0 97 -32.5t37 -89.5q0 -20 -6 -36t-17 -30t-26 -27t-33 -27q-26 -21 -57.5 -48t-62.5 -62h74q22 0 37 2.5t24.5 7.5
t16 14t11.5 22q4 11 8.5 17.5t17.5 6.5h13z" />
    <glyph glyph-name="threequarters" unicode="&#xbe;" horiz-adv-x="851" 
d="M103 522q12 0 28.5 2t31 10t24.5 24t10 44q0 31 -14 53t-45 22q-16 0 -24.5 -5t-8.5 -11t9 -13q7 -5 13 -13.5t6 -24.5q0 -20 -14 -32t-35 -12q-20 0 -34.5 12.5t-14.5 39.5q0 18 8.5 34t25 28.5t40.5 20t55 7.5q60 0 94.5 -30.5t34.5 -74.5q0 -27 -10.5 -44.5
t-25.5 -28.5t-32 -16.5t-31 -8.5q20 -3 40.5 -9t36.5 -17.5t26 -31t10 -50.5q0 -27 -11 -50.5t-31.5 -41t-50.5 -27.5t-69 -10q-28 0 -50 7.5t-37.5 19.5t-23.5 26.5t-8 29.5q0 29 18 42.5t39 13.5q22 0 35.5 -13t13.5 -33q0 -17 -6.5 -25.5t-13.5 -11.5q-11 -5 -11 -11
q0 -5 8 -9.5t24 -4.5q35 0 51.5 26t16.5 68q0 33 -8.5 51.5t-22 27.5t-31 11.5t-36.5 3.5v35zM253 -14h-74l429 728h74zM825 158v-39h-51v-68q0 -8 2.5 -11.5t12.5 -7.5q5 -2 9.5 -6t4.5 -16v-10h-160v20q0 7 3.5 9.5t8.5 4.5q8 2 15.5 8t7.5 25v52h-157v34l183 276h70v-271
h51zM678 326l-113 -168h113v168z" />
    <glyph glyph-name="questiondown" unicode="&#xbf;" 
d="M310 294v-48q0 -41 -15.5 -72t-34 -63t-34 -71t-15.5 -95q0 -57 23.5 -85t52.5 -28q33 0 33 19q0 7 -4 14.5t-9 16t-9 18.5t-4 24q0 31 19.5 51.5t50.5 20.5q34 0 53 -24.5t19 -54.5q0 -34 -15 -58.5t-39.5 -40.5t-55.5 -24t-63 -8q-33 0 -68 8t-64 27t-47.5 51.5
t-18.5 82.5q0 41 14 69t35 49.5t45.5 38t45.5 35t35 40.5t14 54v53h56zM203 426q0 39 21.5 63.5t53.5 24.5t53.5 -24.5t21.5 -63.5t-21.5 -63.5t-53.5 -24.5t-53.5 24.5t-21.5 63.5z" />
    <glyph glyph-name="Agrave" unicode="&#xc0;" horiz-adv-x="556" 
d="M135 184l-17 -55q-4 -14 -5.5 -26t-1.5 -17q0 -16 8.5 -23t18 -11.5t18 -9.5t8.5 -17v-25h-178v25q0 12 6.5 15.5t16.5 9t20.5 17t19.5 39.5l141 467q4 12 4 23q0 20 -6.5 33.5t-6.5 19.5q0 5 2 8t10 8l75 41q6 3 10.5 5.5t12.5 2.5q11 0 16 -15l208 -615q6 -18 15 -25
t18 -10.5t15 -6.5t6 -12v-30h-248v20q0 15 7 21t16 9.5t16 7.5t7 15q0 12 -8 36l-26 75h-198zM312 246l-80 255h-4l-73 -255h157zM293 759l-104 87q-16 14 -25 25.5t-9 26.5q0 22 15 33.5t31 11.5q27 0 47 -30l101 -154h-56z" />
    <glyph glyph-name="Aacute" unicode="&#xc1;" horiz-adv-x="556" 
d="M135 184l-17 -55q-4 -14 -5.5 -26t-1.5 -17q0 -16 8.5 -23t18 -11.5t18 -9.5t8.5 -17v-25h-178v25q0 12 6.5 15.5t16.5 9t20.5 17t19.5 39.5l141 467q4 12 4 23q0 20 -6.5 33.5t-6.5 19.5q0 5 2 8t10 8l75 41q6 3 10.5 5.5t12.5 2.5q11 0 16 -15l208 -615q6 -18 15 -25
t18 -10.5t15 -6.5t6 -12v-30h-248v20q0 15 7 21t16 9.5t16 7.5t7 15q0 12 -8 36l-26 75h-198zM312 246l-80 255h-4l-73 -255h157zM207 759l101 154q19 30 47 30q16 0 31 -11.5t15 -33.5q0 -15 -9 -26.5t-25 -25.5l-104 -87h-56z" />
    <glyph glyph-name="Acircumflex" unicode="&#xc2;" horiz-adv-x="556" 
d="M135 184l-17 -55q-4 -14 -5.5 -26t-1.5 -17q0 -16 8.5 -23t18 -11.5t18 -9.5t8.5 -17v-25h-178v25q0 12 6.5 15.5t16.5 9t20.5 17t19.5 39.5l141 467q4 12 4 23q0 20 -6.5 33.5t-6.5 19.5q0 5 2 8t10 8l75 41q6 3 10.5 5.5t12.5 2.5q11 0 16 -15l208 -615q6 -18 15 -25
t18 -10.5t15 -6.5t6 -12v-30h-248v20q0 15 7 21t16 9.5t16 7.5t7 15q0 12 -8 36l-26 75h-198zM312 246l-80 255h-4l-73 -255h157zM369 759l-91 107l-91 -107h-50l95 174h92l95 -174h-50z" />
    <glyph glyph-name="Atilde" unicode="&#xc3;" horiz-adv-x="556" 
d="M135 184l-17 -55q-4 -14 -5.5 -26t-1.5 -17q0 -16 8.5 -23t18 -11.5t18 -9.5t8.5 -17v-25h-178v25q0 12 6.5 15.5t16.5 9t20.5 17t19.5 39.5l141 467q4 12 4 23q0 20 -6.5 33.5t-6.5 19.5q0 5 2 8t10 8l75 41q6 3 10.5 5.5t12.5 2.5q11 0 16 -15l208 -615q6 -18 15 -25
t18 -10.5t15 -6.5t6 -12v-30h-248v20q0 15 7 21t16 9.5t16 7.5t7 15q0 12 -8 36l-26 75h-198zM312 246l-80 255h-4l-73 -255h157zM433 903q-2 -19 -6.5 -40.5t-15.5 -40t-30.5 -31t-50.5 -12.5q-19 0 -37 7.5t-34.5 17t-30.5 17t-26 7.5q-20 0 -29.5 -14t-13.5 -37h-36
q3 23 10 45.5t19 40.5t29 29t40 11q20 0 35.5 -8t29.5 -17t29.5 -17t35.5 -8q23 0 32.5 16t13.5 34h36z" />
    <glyph glyph-name="Adieresis" unicode="&#xc4;" horiz-adv-x="556" 
d="M135 184l-17 -55q-4 -14 -5.5 -26t-1.5 -17q0 -16 8.5 -23t18 -11.5t18 -9.5t8.5 -17v-25h-178v25q0 12 6.5 15.5t16.5 9t20.5 17t19.5 39.5l141 467q4 12 4 23q0 20 -6.5 33.5t-6.5 19.5q0 5 2 8t10 8l75 41q6 3 10.5 5.5t12.5 2.5q11 0 16 -15l208 -615q6 -18 15 -25
t18 -10.5t15 -6.5t6 -12v-30h-248v20q0 15 7 21t16 9.5t16 7.5t7 15q0 12 -8 36l-26 75h-198zM312 246l-80 255h-4l-73 -255h157zM303 832q0 27 19 46t46 19t46 -19t19 -46t-19 -46t-46 -19t-46 19t-19 46zM123 832q0 27 19 46t46 19t46 -19t19 -46t-19 -46t-46 -19t-46 19
t-19 46z" />
    <glyph glyph-name="Aring" unicode="&#xc5;" horiz-adv-x="556" 
d="M135 184l-17 -55q-4 -14 -5.5 -26t-1.5 -17q0 -16 8.5 -23t18 -11.5t18 -9.5t8.5 -17v-25h-178v25q0 12 6.5 15.5t16.5 9t20.5 17t19.5 39.5l141 467q4 12 4 23q0 20 -6.5 33.5t-6.5 19.5q0 5 2 8t10 8l75 41q6 3 10.5 5.5t12.5 2.5q11 0 16 -15l208 -615q6 -18 15 -25
t18 -10.5t15 -6.5t6 -12v-30h-248v20q0 15 7 21t16 9.5t16 7.5t7 15q0 12 -8 36l-26 75h-198zM312 246l-80 255h-4l-73 -255h157zM172 865q0 45 30.5 75.5t75.5 30.5t75.5 -30.5t30.5 -75.5t-30.5 -75.5t-75.5 -30.5t-75.5 30.5t-30.5 75.5zM220 865q0 -24 17 -41t41 -17
t41 17t17 41t-17 41t-41 17t-41 -17t-17 -41z" />
    <glyph glyph-name="AE" unicode="&#xc6;" horiz-adv-x="841" 
d="M659 700q31 0 60 2t51 12v-207h-24q-18 0 -26 10.5t-13 26t-9.5 34t-14.5 34t-29.5 26t-53.5 10.5h-77v-257h26q24 0 37 5.5t19 13.5t8.5 17.5t5 17.5t8 13.5t18.5 5.5h28v-202h-28q-13 0 -18.5 5.5t-8 13.5t-5 17.5t-8.5 17.5t-19 13.5t-37 5.5h-26v-283h85q39 0 63 8
t38 20.5t20.5 28t9.5 31.5q2 11 4 23t6 22.5t12 17.5t22 7h24v-210h-475v31q0 11 7 13t15.5 4.5t15.5 10t7 28.5v246h-169l-90 -199q-7 -16 -14.5 -31t-7.5 -29q0 -13 7 -18t16 -7.5t16 -5t7 -9.5v-34h-176v29q0 10 5.5 13.5t13.5 7t17 10t17 23.5l237 507q3 7 6.5 17
t3.5 18q0 11 -8 16t-17 8t-17 6.5t-8 12.5v32h443zM377 389v245q0 10 -2 15t-10 5t-14.5 -10.5t-16.5 -31.5l-100 -223h143z" />
    <glyph glyph-name="Ccedilla" unicode="&#xc7;" horiz-adv-x="556" 
d="M507 458h-29q-15 0 -23 15t-14.5 38t-12.5 49t-17.5 49t-29.5 38t-48 15q-41 0 -67.5 -25.5t-42 -67.5t-21.5 -96t-6 -111q0 -62 6 -118.5t21.5 -100t42.5 -69.5t68 -26q40 0 64.5 20t38.5 47t19.5 56t7.5 47l58 -37q-14 -93 -62.5 -144t-125.5 -51h-15t-14 1l-22 -53
q9 2 16.5 3t18.5 1q35 0 61.5 -18t26.5 -51q0 -22 -11.5 -38.5t-30 -28t-42 -17t-48.5 -5.5q-28 0 -51 4.5t-45 12.5l17 37q20 -8 32 -12t26 -4q23 0 42 11t19 32q0 17 -12 28t-31 11q-11 0 -19 -2t-15 -5l-9 8l40 92q-60 13 -104 47t-73 82t-43 106.5t-14 120.5
q0 70 17.5 135.5t51.5 116.5t84 82t115 31q31 0 55.5 -8t42 -17t28.5 -17t16 -8q10 0 14.5 7t6.5 13h42v-226z" />
    <glyph glyph-name="Egrave" unicode="&#xc8;" horiz-adv-x="556" 
d="M80 613q0 21 -7 28.5t-16 10t-16 4.5t-7 13v31h340q31 0 60 2t51 12v-207h-24q-18 0 -26 10.5t-13 26t-9.5 34t-14.5 34t-29.5 26t-53.5 10.5h-89v-257h38q24 0 37 5.5t19 13.5t8.5 17.5t5 17.5t8 13.5t18.5 5.5h28v-202h-28q-13 0 -18.5 5.5t-8 13.5t-5 17.5t-8.5 17.5
t-19 13.5t-37 5.5h-38v-283h97q39 0 63 8t38 20.5t20.5 28t9.5 31.5q2 11 4 23t6 22.5t12 17.5t22 7h24v-210h-488v31q0 11 7 13t16 4.5t16 10t7 28.5v526zM293 759l-104 87q-16 14 -25 25.5t-9 26.5q0 22 15 33.5t31 11.5q27 0 47 -30l101 -154h-56z" />
    <glyph glyph-name="Eacute" unicode="&#xc9;" horiz-adv-x="556" 
d="M80 613q0 21 -7 28.5t-16 10t-16 4.5t-7 13v31h340q31 0 60 2t51 12v-207h-24q-18 0 -26 10.5t-13 26t-9.5 34t-14.5 34t-29.5 26t-53.5 10.5h-89v-257h38q24 0 37 5.5t19 13.5t8.5 17.5t5 17.5t8 13.5t18.5 5.5h28v-202h-28q-13 0 -18.5 5.5t-8 13.5t-5 17.5t-8.5 17.5
t-19 13.5t-37 5.5h-38v-283h97q39 0 63 8t38 20.5t20.5 28t9.5 31.5q2 11 4 23t6 22.5t12 17.5t22 7h24v-210h-488v31q0 11 7 13t16 4.5t16 10t7 28.5v526zM207 759l101 154q19 30 47 30q16 0 31 -11.5t15 -33.5q0 -15 -9 -26.5t-25 -25.5l-104 -87h-56z" />
    <glyph glyph-name="Ecircumflex" unicode="&#xca;" horiz-adv-x="556" 
d="M80 613q0 21 -7 28.5t-16 10t-16 4.5t-7 13v31h340q31 0 60 2t51 12v-207h-24q-18 0 -26 10.5t-13 26t-9.5 34t-14.5 34t-29.5 26t-53.5 10.5h-89v-257h38q24 0 37 5.5t19 13.5t8.5 17.5t5 17.5t8 13.5t18.5 5.5h28v-202h-28q-13 0 -18.5 5.5t-8 13.5t-5 17.5t-8.5 17.5
t-19 13.5t-37 5.5h-38v-283h97q39 0 63 8t38 20.5t20.5 28t9.5 31.5q2 11 4 23t6 22.5t12 17.5t22 7h24v-210h-488v31q0 11 7 13t16 4.5t16 10t7 28.5v526zM369 759l-91 107l-91 -107h-50l95 174h92l95 -174h-50z" />
    <glyph glyph-name="Edieresis" unicode="&#xcb;" horiz-adv-x="556" 
d="M80 613q0 21 -7 28.5t-16 10t-16 4.5t-7 13v31h340q31 0 60 2t51 12v-207h-24q-18 0 -26 10.5t-13 26t-9.5 34t-14.5 34t-29.5 26t-53.5 10.5h-89v-257h38q24 0 37 5.5t19 13.5t8.5 17.5t5 17.5t8 13.5t18.5 5.5h28v-202h-28q-13 0 -18.5 5.5t-8 13.5t-5 17.5t-8.5 17.5
t-19 13.5t-37 5.5h-38v-283h97q39 0 63 8t38 20.5t20.5 28t9.5 31.5q2 11 4 23t6 22.5t12 17.5t22 7h24v-210h-488v31q0 11 7 13t16 4.5t16 10t7 28.5v526zM303 832q0 27 19 46t46 19t46 -19t19 -46t-19 -46t-46 -19t-46 19t-19 46zM123 832q0 27 19 46t46 19t46 -19t19 -46
t-19 -46t-46 -19t-46 19t-19 46z" />
    <glyph glyph-name="Igrave" unicode="&#xcc;" horiz-adv-x="333" 
d="M93 613q0 21 -7 28.5t-15.5 10t-15.5 4.5t-7 13v31h236v-31q0 -11 -7 -13t-15.5 -4.5t-15.5 -10t-7 -28.5v-526q0 -21 7 -28.5t15.5 -10t15.5 -4.5t7 -13v-31h-236v31q0 11 7 13t15.5 4.5t15.5 10t7 28.5v526zM182 759l-104 87q-16 14 -25 25.5t-9 26.5q0 22 15 33.5
t31 11.5q27 0 47 -30l101 -154h-56z" />
    <glyph glyph-name="Iacute" unicode="&#xcd;" horiz-adv-x="333" 
d="M93 613q0 21 -7 28.5t-15.5 10t-15.5 4.5t-7 13v31h236v-31q0 -11 -7 -13t-15.5 -4.5t-15.5 -10t-7 -28.5v-526q0 -21 7 -28.5t15.5 -10t15.5 -4.5t7 -13v-31h-236v31q0 11 7 13t15.5 4.5t15.5 10t7 28.5v526zM96 759l101 154q19 30 47 30q16 0 31 -11.5t15 -33.5
q0 -15 -9 -26.5t-25 -25.5l-104 -87h-56z" />
    <glyph glyph-name="Icircumflex" unicode="&#xce;" horiz-adv-x="333" 
d="M93 613q0 21 -7 28.5t-15.5 10t-15.5 4.5t-7 13v31h236v-31q0 -11 -7 -13t-15.5 -4.5t-15.5 -10t-7 -28.5v-526q0 -21 7 -28.5t15.5 -10t15.5 -4.5t7 -13v-31h-236v31q0 11 7 13t15.5 4.5t15.5 10t7 28.5v526zM258 759l-91 107l-91 -107h-50l95 174h92l95 -174h-50z" />
    <glyph glyph-name="Idieresis" unicode="&#xcf;" horiz-adv-x="333" 
d="M93 613q0 21 -7 28.5t-15.5 10t-15.5 4.5t-7 13v31h236v-31q0 -11 -7 -13t-15.5 -4.5t-15.5 -10t-7 -28.5v-526q0 -21 7 -28.5t15.5 -10t15.5 -4.5t7 -13v-31h-236v31q0 11 7 13t15.5 4.5t15.5 10t7 28.5v526zM192 832q0 27 19 46t46 19t46 -19t19 -46t-19 -46t-46 -19
t-46 19t-19 46zM12 832q0 27 19 46t46 19t46 -19t19 -46t-19 -46t-46 -19t-46 19t-19 46z" />
    <glyph glyph-name="Eth" unicode="&#xd0;" horiz-adv-x="667" 
d="M351 332h-125v-280h69q47 0 80.5 11.5t54.5 44t31 90.5t10 152q0 79 -9.5 135.5t-30 92.5t-53.5 53t-79 17h-73v-254h125v-62zM15 394h65v219q0 21 -7 28.5t-16 10t-16 4.5t-7 13v31h263q87 0 150.5 -27t105 -74t61 -111t19.5 -138q0 -83 -21.5 -148t-63.5 -110
t-102.5 -68.5t-138.5 -23.5h-273v31q0 11 7 13t16 4.5t16 10t7 28.5v245h-65v62z" />
    <glyph glyph-name="Ntilde" unicode="&#xd1;" horiz-adv-x="611" 
d="M469 271h4v342q0 21 -7.5 28.5t-17 10t-17 5.5t-7.5 15v28h168v-28q0 -12 -7.5 -15t-17 -5.5t-17 -10t-7.5 -28.5v-613h-69l-333 574h-4v-487q0 -21 7.5 -28.5t17 -10t17 -5.5t7.5 -15v-28h-168v28q0 12 7.5 15t17 5.5t17 10t7.5 28.5v526q0 21 -6.5 28.5t-15 10t-15 4.5
t-6.5 13v31h199zM467 903q-2 -19 -6.5 -40.5t-15.5 -40t-30.5 -31t-50.5 -12.5q-19 0 -37 7.5t-34.5 17t-30.5 17t-26 7.5q-20 0 -29.5 -14t-13.5 -37h-36q3 23 10 45.5t19 40.5t29 29t40 11q20 0 35.5 -8t29.5 -17t29.5 -17t35.5 -8q23 0 32.5 16t13.5 34h36z" />
    <glyph glyph-name="Ograve" unicode="&#xd2;" horiz-adv-x="667" 
d="M333 714q77 0 133.5 -30.5t93.5 -81.5t55 -116.5t18 -135.5t-18 -135.5t-55 -116.5t-93.5 -81.5t-133.5 -30.5t-133.5 30.5t-93.5 81.5t-55 116.5t-18 135.5t18 135.5t55 116.5t93.5 81.5t133.5 30.5zM471 350q0 60 -6 116.5t-21.5 100t-42.5 69.5t-68 26t-68 -26
t-42.5 -69t-21.5 -99.5t-6 -117.5t6 -117.5t21.5 -99.5t42.5 -69t68 -26t68 26t42.5 69.5t21.5 100t6 116.5zM349 759l-104 87q-16 14 -25 25.5t-9 26.5q0 22 15 33.5t31 11.5q27 0 47 -30l101 -154h-56z" />
    <glyph glyph-name="Oacute" unicode="&#xd3;" horiz-adv-x="667" 
d="M333 714q77 0 133.5 -30.5t93.5 -81.5t55 -116.5t18 -135.5t-18 -135.5t-55 -116.5t-93.5 -81.5t-133.5 -30.5t-133.5 30.5t-93.5 81.5t-55 116.5t-18 135.5t18 135.5t55 116.5t93.5 81.5t133.5 30.5zM471 350q0 60 -6 116.5t-21.5 100t-42.5 69.5t-68 26t-68 -26
t-42.5 -69t-21.5 -99.5t-6 -117.5t6 -117.5t21.5 -99.5t42.5 -69t68 -26t68 26t42.5 69.5t21.5 100t6 116.5zM263 759l101 154q19 30 47 30q16 0 31 -11.5t15 -33.5q0 -15 -9 -26.5t-25 -25.5l-104 -87h-56z" />
    <glyph glyph-name="Ocircumflex" unicode="&#xd4;" horiz-adv-x="667" 
d="M333 714q77 0 133.5 -30.5t93.5 -81.5t55 -116.5t18 -135.5t-18 -135.5t-55 -116.5t-93.5 -81.5t-133.5 -30.5t-133.5 30.5t-93.5 81.5t-55 116.5t-18 135.5t18 135.5t55 116.5t93.5 81.5t133.5 30.5zM471 350q0 60 -6 116.5t-21.5 100t-42.5 69.5t-68 26t-68 -26
t-42.5 -69t-21.5 -99.5t-6 -117.5t6 -117.5t21.5 -99.5t42.5 -69t68 -26t68 26t42.5 69.5t21.5 100t6 116.5zM425 759l-91 107l-91 -107h-50l95 174h92l95 -174h-50z" />
    <glyph glyph-name="Otilde" unicode="&#xd5;" horiz-adv-x="667" 
d="M333 714q77 0 133.5 -30.5t93.5 -81.5t55 -116.5t18 -135.5t-18 -135.5t-55 -116.5t-93.5 -81.5t-133.5 -30.5t-133.5 30.5t-93.5 81.5t-55 116.5t-18 135.5t18 135.5t55 116.5t93.5 81.5t133.5 30.5zM471 350q0 60 -6 116.5t-21.5 100t-42.5 69.5t-68 26t-68 -26
t-42.5 -69t-21.5 -99.5t-6 -117.5t6 -117.5t21.5 -99.5t42.5 -69t68 -26t68 26t42.5 69.5t21.5 100t6 116.5zM489 903q-2 -19 -6.5 -40.5t-15.5 -40t-30.5 -31t-50.5 -12.5q-19 0 -37 7.5t-34.5 17t-30.5 17t-26 7.5q-20 0 -29.5 -14t-13.5 -37h-36q3 23 10 45.5t19 40.5
t29 29t40 11q20 0 35.5 -8t29.5 -17t29.5 -17t35.5 -8q23 0 32.5 16t13.5 34h36z" />
    <glyph glyph-name="Odieresis" unicode="&#xd6;" horiz-adv-x="667" 
d="M333 714q77 0 133.5 -30.5t93.5 -81.5t55 -116.5t18 -135.5t-18 -135.5t-55 -116.5t-93.5 -81.5t-133.5 -30.5t-133.5 30.5t-93.5 81.5t-55 116.5t-18 135.5t18 135.5t55 116.5t93.5 81.5t133.5 30.5zM471 350q0 60 -6 116.5t-21.5 100t-42.5 69.5t-68 26t-68 -26
t-42.5 -69t-21.5 -99.5t-6 -117.5t6 -117.5t21.5 -99.5t42.5 -69t68 -26t68 26t42.5 69.5t21.5 100t6 116.5zM359 832q0 27 19 46t46 19t46 -19t19 -46t-19 -46t-46 -19t-46 19t-19 46zM179 832q0 27 19 46t46 19t46 -19t19 -46t-19 -46t-46 -19t-46 19t-19 46z" />
    <glyph glyph-name="multiply" unicode="&#xd7;" horiz-adv-x="600" 
d="M60 405l75 75l165 -165l165 165l75 -75l-165 -165l165 -165l-75 -75l-165 165l-165 -165l-75 75l165 165z" />
    <glyph glyph-name="Oslash" unicode="&#xd8;" horiz-adv-x="667" 
d="M235 106q16 -32 40 -50t58 -18q41 0 68 26t42.5 69.5t21.5 100t6 116.5q0 51 -4.5 99.5t-15.5 87.5zM424 606q-15 26 -37.5 41t-53.5 15q-41 0 -68 -26t-42.5 -69t-21.5 -99.5t-6 -117.5q0 -47 3.5 -90.5t12.5 -79.5zM570 773l-60 -119q63 -51 93 -132.5t30 -171.5
q0 -70 -18 -135.5t-55 -116.5t-93.5 -81.5t-133.5 -30.5q-81 0 -140 35l-50 -101h-62l66 132q-58 52 -86 131t-28 167q0 70 18 135.5t55 116.5t93.5 81.5t133.5 30.5q38 0 70 -8t60 -22l45 89h62z" />
    <glyph glyph-name="Ugrave" unicode="&#xd9;" horiz-adv-x="611" 
d="M264 700v-31q0 -11 -7 -13t-16 -4.5t-16 -10t-7 -28.5v-397q0 -39 5 -70.5t18.5 -53t38.5 -33t66 -11.5q39 0 64.5 9.5t40 28.5t20.5 47t6 66v414q0 21 -7 28.5t-16 10t-16 4.5t-7 13v31h162v-31q0 -11 -7 -13t-16 -4.5t-16 -10t-7 -28.5v-414q0 -111 -58 -162t-192 -51
q-124 0 -178.5 53t-54.5 152v422q0 21 -7 28.5t-16 10t-16 4.5t-7 13v31h246zM327 759l-104 87q-16 14 -25 25.5t-9 26.5q0 22 15 33.5t31 11.5q27 0 47 -30l101 -154h-56z" />
    <glyph glyph-name="Uacute" unicode="&#xda;" horiz-adv-x="611" 
d="M264 700v-31q0 -11 -7 -13t-16 -4.5t-16 -10t-7 -28.5v-397q0 -39 5 -70.5t18.5 -53t38.5 -33t66 -11.5q39 0 64.5 9.5t40 28.5t20.5 47t6 66v414q0 21 -7 28.5t-16 10t-16 4.5t-7 13v31h162v-31q0 -11 -7 -13t-16 -4.5t-16 -10t-7 -28.5v-414q0 -111 -58 -162t-192 -51
q-124 0 -178.5 53t-54.5 152v422q0 21 -7 28.5t-16 10t-16 4.5t-7 13v31h246zM241 759l101 154q19 30 47 30q16 0 31 -11.5t15 -33.5q0 -15 -9 -26.5t-25 -25.5l-104 -87h-56z" />
    <glyph glyph-name="Ucircumflex" unicode="&#xdb;" horiz-adv-x="611" 
d="M264 700v-31q0 -11 -7 -13t-16 -4.5t-16 -10t-7 -28.5v-397q0 -39 5 -70.5t18.5 -53t38.5 -33t66 -11.5q39 0 64.5 9.5t40 28.5t20.5 47t6 66v414q0 21 -7 28.5t-16 10t-16 4.5t-7 13v31h162v-31q0 -11 -7 -13t-16 -4.5t-16 -10t-7 -28.5v-414q0 -111 -58 -162t-192 -51
q-124 0 -178.5 53t-54.5 152v422q0 21 -7 28.5t-16 10t-16 4.5t-7 13v31h246zM403 759l-91 107l-91 -107h-50l95 174h92l95 -174h-50z" />
    <glyph glyph-name="Udieresis" unicode="&#xdc;" horiz-adv-x="611" 
d="M264 700v-31q0 -11 -7 -13t-16 -4.5t-16 -10t-7 -28.5v-397q0 -39 5 -70.5t18.5 -53t38.5 -33t66 -11.5q39 0 64.5 9.5t40 28.5t20.5 47t6 66v414q0 21 -7 28.5t-16 10t-16 4.5t-7 13v31h162v-31q0 -11 -7 -13t-16 -4.5t-16 -10t-7 -28.5v-414q0 -111 -58 -162t-192 -51
q-124 0 -178.5 53t-54.5 152v422q0 21 -7 28.5t-16 10t-16 4.5t-7 13v31h246zM337 832q0 27 19 46t46 19t46 -19t19 -46t-19 -46t-46 -19t-46 19t-19 46zM157 832q0 27 19 46t46 19t46 -19t19 -46t-19 -46t-46 -19t-46 19t-19 46z" />
    <glyph glyph-name="Yacute" unicode="&#xdd;" 
d="M323 87q0 -21 6.5 -28.5t14 -10t14 -4.5t6.5 -13v-31h-228v31q0 11 6.5 13t14 4.5t14 10t6.5 28.5v222l-128 278q-14 30 -26.5 42.5t-22.5 18t-15.5 8t-5.5 12.5v32h261v-32q0 -9 -7.5 -12.5t-17 -6.5t-17 -8.5t-7.5 -17.5q0 -8 5.5 -23.5t22.5 -50.5l74 -154l72 145
q14 30 22 49.5t8 31.5q0 13 -7.5 18.5t-17 9t-17 7t-7.5 12.5v32h176v-28q0 -12 -5 -15t-13 -6.5t-20 -13.5t-25 -37l-136 -270v-243zM179 759l101 154q19 30 47 30q16 0 31 -11.5t15 -33.5q0 -15 -9 -26.5t-25 -25.5l-104 -87h-56z" />
    <glyph glyph-name="Thorn" unicode="&#xde;" horiz-adv-x="519" 
d="M80 613q0 21 -7 28.5t-16 10t-16 4.5t-7 13v31h246v-31q0 -11 -8.5 -13t-18.5 -4.5t-18.5 -10t-8.5 -28.5v-45q44 0 94 -5.5t92.5 -25t70.5 -57.5t28 -104q0 -67 -25.5 -105.5t-66 -58t-91.5 -25t-102 -5.5v-95q0 -21 7 -28.5t16 -10t16 -4.5t7 -13v-31h-238v31
q0 11 7 13t16 4.5t16 10t7 28.5v526zM226 236h16q27 0 49 5.5t37.5 20.5t24 42.5t8.5 71.5q0 43 -8.5 70.5t-24 43t-37.5 21t-49 5.5h-16v-280z" />
    <glyph glyph-name="germandbls" unicode="&#xdf;" horiz-adv-x="611" 
d="M83 431h-51v16q0 16 8.5 22t19 10t19.5 10.5t9 23.5q0 34 10 69.5t34 65t63.5 48t97.5 18.5q39 0 75.5 -9t64.5 -27.5t44.5 -47.5t16.5 -69q0 -25 -5.5 -42.5t-15 -29.5t-21.5 -19.5t-25 -12.5q-12 -5 -24 -9.5t-21.5 -9.5t-15.5 -13t-6 -21q0 -17 17 -29t42 -24
t54.5 -26t54.5 -35.5t42 -52t17 -74.5q0 -38 -12.5 -70t-37.5 -56t-61 -37.5t-83 -13.5q-37 0 -64 10t-45 27t-26.5 39.5t-8.5 48.5q0 29 18 47t44 18q29 0 46.5 -17t17.5 -43q0 -14 -3 -22t-7 -14t-7 -11t-3 -13q0 -13 12.5 -18.5t30.5 -5.5q36 0 56.5 26t20.5 60
q0 27 -16.5 46t-41 34t-53 29t-53 31.5t-41 40.5t-16.5 57q0 19 4.5 32t12 22.5t17.5 16t20 12.5t20 14t17.5 20t12 29.5t4.5 42.5q0 27 -3 49.5t-11 39t-22 25.5t-35 9q-42 0 -59 -26t-17 -74v-568h-181v24q0 12 7.5 15t17 5t17 7.5t7.5 21.5v358z" />
    <glyph glyph-name="agrave" unicode="&#xe0;" 
d="M422 109q0 -9 0.5 -19t3 -18t8 -13t16.5 -5q6 0 10 2t9 5l23 -18q-12 -31 -36.5 -44t-50.5 -13q-23 0 -39 6t-27 15.5t-18.5 20.5t-13.5 21l-23.5 -23.5t-26 -20t-33.5 -14t-44 -5.5q-33 0 -61 10.5t-48 29t-31 44.5t-11 57q0 46 19.5 76t54 50.5t82.5 34t105 27.5
q-1 26 -2.5 50t-8.5 42.5t-21.5 29.5t-39.5 11q-39 0 -39 -36q0 -8 1 -15t1 -15q0 -30 -16.5 -44t-42.5 -14q-29 0 -46 17.5t-17 47.5q0 21 10 40t29.5 33.5t47.5 23t64 8.5q42 0 80.5 -10t67.5 -33t46.5 -61.5t17.5 -96.5v-184zM290 263q-21 -3 -42.5 -11t-39 -23
t-28.5 -39t-11 -58q0 -32 11.5 -56t40.5 -24q32 0 50.5 27t18.5 78v106zM253 539l-104 87q-16 14 -25 25.5t-9 26.5q0 22 15 33.5t31 11.5q27 0 47 -30l101 -154h-56z" />
    <glyph glyph-name="aacute" unicode="&#xe1;" 
d="M422 109q0 -9 0.5 -19t3 -18t8 -13t16.5 -5q6 0 10 2t9 5l23 -18q-12 -31 -36.5 -44t-50.5 -13q-23 0 -39 6t-27 15.5t-18.5 20.5t-13.5 21l-23.5 -23.5t-26 -20t-33.5 -14t-44 -5.5q-33 0 -61 10.5t-48 29t-31 44.5t-11 57q0 46 19.5 76t54 50.5t82.5 34t105 27.5
q-1 26 -2.5 50t-8.5 42.5t-21.5 29.5t-39.5 11q-39 0 -39 -36q0 -8 1 -15t1 -15q0 -30 -16.5 -44t-42.5 -14q-29 0 -46 17.5t-17 47.5q0 21 10 40t29.5 33.5t47.5 23t64 8.5q42 0 80.5 -10t67.5 -33t46.5 -61.5t17.5 -96.5v-184zM290 263q-21 -3 -42.5 -11t-39 -23
t-28.5 -39t-11 -58q0 -32 11.5 -56t40.5 -24q32 0 50.5 27t18.5 78v106zM167 539l101 154q19 30 47 30q16 0 31 -11.5t15 -33.5q0 -15 -9 -26.5t-25 -25.5l-104 -87h-56z" />
    <glyph glyph-name="acircumflex" unicode="&#xe2;" 
d="M422 109q0 -9 0.5 -19t3 -18t8 -13t16.5 -5q6 0 10 2t9 5l23 -18q-12 -31 -36.5 -44t-50.5 -13q-23 0 -39 6t-27 15.5t-18.5 20.5t-13.5 21l-23.5 -23.5t-26 -20t-33.5 -14t-44 -5.5q-33 0 -61 10.5t-48 29t-31 44.5t-11 57q0 46 19.5 76t54 50.5t82.5 34t105 27.5
q-1 26 -2.5 50t-8.5 42.5t-21.5 29.5t-39.5 11q-39 0 -39 -36q0 -8 1 -15t1 -15q0 -30 -16.5 -44t-42.5 -14q-29 0 -46 17.5t-17 47.5q0 21 10 40t29.5 33.5t47.5 23t64 8.5q42 0 80.5 -10t67.5 -33t46.5 -61.5t17.5 -96.5v-184zM290 263q-21 -3 -42.5 -11t-39 -23
t-28.5 -39t-11 -58q0 -32 11.5 -56t40.5 -24q32 0 50.5 27t18.5 78v106zM329 539l-91 107l-91 -107h-50l95 174h92l95 -174h-50z" />
    <glyph glyph-name="atilde" unicode="&#xe3;" 
d="M422 109q0 -9 0.5 -19t3 -18t8 -13t16.5 -5q6 0 10 2t9 5l23 -18q-12 -31 -36.5 -44t-50.5 -13q-23 0 -39 6t-27 15.5t-18.5 20.5t-13.5 21l-23.5 -23.5t-26 -20t-33.5 -14t-44 -5.5q-33 0 -61 10.5t-48 29t-31 44.5t-11 57q0 46 19.5 76t54 50.5t82.5 34t105 27.5
q-1 26 -2.5 50t-8.5 42.5t-21.5 29.5t-39.5 11q-39 0 -39 -36q0 -8 1 -15t1 -15q0 -30 -16.5 -44t-42.5 -14q-29 0 -46 17.5t-17 47.5q0 21 10 40t29.5 33.5t47.5 23t64 8.5q42 0 80.5 -10t67.5 -33t46.5 -61.5t17.5 -96.5v-184zM290 263q-21 -3 -42.5 -11t-39 -23
t-28.5 -39t-11 -58q0 -32 11.5 -56t40.5 -24q32 0 50.5 27t18.5 78v106zM393 683q-2 -19 -6.5 -40.5t-15.5 -40t-30.5 -31t-50.5 -12.5q-19 0 -37 7.5t-34.5 17t-30.5 17t-26 7.5q-20 0 -29.5 -14t-13.5 -37h-36q3 23 10 45.5t19 40.5t29 29t40 11q20 0 35.5 -8t29.5 -17
t29.5 -17t35.5 -8q23 0 32.5 16t13.5 34h36z" />
    <glyph glyph-name="adieresis" unicode="&#xe4;" 
d="M422 109q0 -9 0.5 -19t3 -18t8 -13t16.5 -5q6 0 10 2t9 5l23 -18q-12 -31 -36.5 -44t-50.5 -13q-23 0 -39 6t-27 15.5t-18.5 20.5t-13.5 21l-23.5 -23.5t-26 -20t-33.5 -14t-44 -5.5q-33 0 -61 10.5t-48 29t-31 44.5t-11 57q0 46 19.5 76t54 50.5t82.5 34t105 27.5
q-1 26 -2.5 50t-8.5 42.5t-21.5 29.5t-39.5 11q-39 0 -39 -36q0 -8 1 -15t1 -15q0 -30 -16.5 -44t-42.5 -14q-29 0 -46 17.5t-17 47.5q0 21 10 40t29.5 33.5t47.5 23t64 8.5q42 0 80.5 -10t67.5 -33t46.5 -61.5t17.5 -96.5v-184zM290 263q-21 -3 -42.5 -11t-39 -23
t-28.5 -39t-11 -58q0 -32 11.5 -56t40.5 -24q32 0 50.5 27t18.5 78v106zM263 612q0 27 19 46t46 19t46 -19t19 -46t-19 -46t-46 -19t-46 19t-19 46zM83 612q0 27 19 46t46 19t46 -19t19 -46t-19 -46t-46 -19t-46 19t-19 46z" />
    <glyph glyph-name="aring" unicode="&#xe5;" 
d="M422 109q0 -9 0.5 -19t3 -18t8 -13t16.5 -5q6 0 10 2t9 5l23 -18q-12 -31 -36.5 -44t-50.5 -13q-23 0 -39 6t-27 15.5t-18.5 20.5t-13.5 21l-23.5 -23.5t-26 -20t-33.5 -14t-44 -5.5q-33 0 -61 10.5t-48 29t-31 44.5t-11 57q0 46 19.5 76t54 50.5t82.5 34t105 27.5
q-1 26 -2.5 50t-8.5 42.5t-21.5 29.5t-39.5 11q-39 0 -39 -36q0 -8 1 -15t1 -15q0 -30 -16.5 -44t-42.5 -14q-29 0 -46 17.5t-17 47.5q0 21 10 40t29.5 33.5t47.5 23t64 8.5q42 0 80.5 -10t67.5 -33t46.5 -61.5t17.5 -96.5v-184zM290 263q-21 -3 -42.5 -11t-39 -23
t-28.5 -39t-11 -58q0 -32 11.5 -56t40.5 -24q32 0 50.5 27t18.5 78v106zM132 645q0 45 30.5 75.5t75.5 30.5t75.5 -30.5t30.5 -75.5t-30.5 -75.5t-75.5 -30.5t-75.5 30.5t-30.5 75.5zM180 645q0 -24 17 -41t41 -17t41 17t17 41t-17 41t-41 17t-41 -17t-17 -41z" />
    <glyph glyph-name="ae" unicode="&#xe6;" horiz-adv-x="737" 
d="M426 246v-39q0 -29 5 -58.5t16.5 -53t31 -38.5t48.5 -15q28 0 49.5 9.5t37 25.5t25.5 36t16 40l43 -31q-23 -69 -68.5 -102.5t-119.5 -33.5q-35 0 -60 6t-43 16t-31.5 21.5t-24.5 22.5q-12 -10 -26.5 -21.5t-35 -21.5t-47 -16.5t-62.5 -6.5q-33 0 -61 10.5t-48 29
t-31 44.5t-11 57q0 46 19.5 76t54 48.5t81.5 28.5t102 17q0 33 -1.5 60.5t-8 47.5t-21 31.5t-39.5 11.5q-42 0 -42 -36q0 -8 1 -15t1 -15q0 -30 -16.5 -44t-42.5 -14q-29 0 -46 17.5t-17 47.5q0 21 10 40t29.5 33.5t47.5 23t64 8.5q45 0 82 -11.5t77 -42.5q20 22 50.5 38
t79.5 16q54 0 92.5 -19t63 -51t36 -73.5t11.5 -85.5v-19h-271zM286 245q-20 0 -40.5 -6t-37.5 -19.5t-28 -36.5t-11 -56q0 -36 15 -60.5t43 -24.5q35 0 47 26t12 72v105zM557 302v31q0 59 -15 82t-44 23q-22 0 -36 -10.5t-22 -29t-11 -43.5t-3 -53h131z" />
    <glyph glyph-name="ccedilla" unicode="&#xe7;" horiz-adv-x="444" 
d="M127 -166q20 -8 32 -12t26 -4q23 0 42 11t19 32q0 17 -12 28t-31 11q-11 0 -19 -2t-15 -5l-9 8l40 91q-38 9 -70 31.5t-54.5 55t-35 73.5t-12.5 88q0 54 16.5 100.5t46.5 80.5t71 53.5t90 19.5q34 0 63.5 -9t51 -24.5t33.5 -37.5t12 -47q0 -28 -17.5 -49t-50.5 -21
t-48.5 15.5t-15.5 35.5q0 12 3 20.5t6 15l6 13t3 15.5q0 15 -11.5 21t-27.5 6q-26 0 -43 -16.5t-28 -45t-15.5 -65.5t-4.5 -77q0 -39 5.5 -75.5t18.5 -64.5t33.5 -45t49.5 -17q23 0 39.5 9t28 23.5t18.5 33t11 37.5l45 -34q-9 -39 -27.5 -63.5t-41.5 -38t-48.5 -18.5
t-49.5 -5q-10 0 -13 1l-22 -53q9 2 16.5 3t18.5 1q35 0 61.5 -18t26.5 -51q0 -22 -11.5 -38.5t-30 -28t-42 -17t-48.5 -5.5q-28 0 -51 4.5t-45 12.5z" />
    <glyph glyph-name="egrave" unicode="&#xe8;" 
d="M182 246v-39q0 -29 5 -58.5t17 -53t32.5 -38.5t50.5 -15q29 0 51 9.5t37.5 25.5t26 36t16.5 40l43 -31q-23 -69 -69 -102.5t-122 -33.5q-54 0 -98 19.5t-75 53.5t-48 80.5t-17 100.5t16.5 100.5t46 80.5t70 53.5t87.5 19.5q55 0 94 -19t63.5 -51t36 -73.5t11.5 -85.5v-19
h-275zM317 302v31q0 59 -15.5 82t-45.5 23q-22 0 -36 -10.5t-22.5 -29t-12 -43.5t-3.5 -53h135zM265 539l-104 87q-16 14 -25 25.5t-9 26.5q0 22 15 33.5t31 11.5q27 0 47 -30l101 -154h-56z" />
    <glyph glyph-name="eacute" unicode="&#xe9;" 
d="M182 246v-39q0 -29 5 -58.5t17 -53t32.5 -38.5t50.5 -15q29 0 51 9.5t37.5 25.5t26 36t16.5 40l43 -31q-23 -69 -69 -102.5t-122 -33.5q-54 0 -98 19.5t-75 53.5t-48 80.5t-17 100.5t16.5 100.5t46 80.5t70 53.5t87.5 19.5q55 0 94 -19t63.5 -51t36 -73.5t11.5 -85.5v-19
h-275zM317 302v31q0 59 -15.5 82t-45.5 23q-22 0 -36 -10.5t-22.5 -29t-12 -43.5t-3.5 -53h135zM179 539l101 154q19 30 47 30q16 0 31 -11.5t15 -33.5q0 -15 -9 -26.5t-25 -25.5l-104 -87h-56z" />
    <glyph glyph-name="ecircumflex" unicode="&#xea;" 
d="M182 246v-39q0 -29 5 -58.5t17 -53t32.5 -38.5t50.5 -15q29 0 51 9.5t37.5 25.5t26 36t16.5 40l43 -31q-23 -69 -69 -102.5t-122 -33.5q-54 0 -98 19.5t-75 53.5t-48 80.5t-17 100.5t16.5 100.5t46 80.5t70 53.5t87.5 19.5q55 0 94 -19t63.5 -51t36 -73.5t11.5 -85.5v-19
h-275zM317 302v31q0 59 -15.5 82t-45.5 23q-22 0 -36 -10.5t-22.5 -29t-12 -43.5t-3.5 -53h135zM341 539l-91 107l-91 -107h-50l95 174h92l95 -174h-50z" />
    <glyph glyph-name="edieresis" unicode="&#xeb;" 
d="M182 246v-39q0 -29 5 -58.5t17 -53t32.5 -38.5t50.5 -15q29 0 51 9.5t37.5 25.5t26 36t16.5 40l43 -31q-23 -69 -69 -102.5t-122 -33.5q-54 0 -98 19.5t-75 53.5t-48 80.5t-17 100.5t16.5 100.5t46 80.5t70 53.5t87.5 19.5q55 0 94 -19t63.5 -51t36 -73.5t11.5 -85.5v-19
h-275zM317 302v31q0 59 -15.5 82t-45.5 23q-22 0 -36 -10.5t-22.5 -29t-12 -43.5t-3.5 -53h135zM275 612q0 27 19 46t46 19t46 -19t19 -46t-19 -46t-46 -19t-46 19t-19 46zM95 612q0 27 19 46t46 19t46 -19t19 -46t-19 -46t-46 -19t-46 19t-19 46z" />
    <glyph glyph-name="igrave" unicode="&#xec;" horiz-adv-x="284" 
d="M208 73q0 -16 7.5 -21.5t17 -7.5t17 -5t7.5 -15v-24h-230v24q0 12 7.5 15t17 5t17 7.5t7.5 21.5v334q0 16 -7.5 21.5t-17 7.5t-17 5t-7.5 15v24h181v-407zM152 539l-104 87q-16 14 -25 25.5t-9 26.5q0 22 15 33.5t31 11.5q27 0 47 -30l101 -154h-56z" />
    <glyph glyph-name="iacute" unicode="&#xed;" horiz-adv-x="284" 
d="M208 73q0 -16 7.5 -21.5t17 -7.5t17 -5t7.5 -15v-24h-230v24q0 12 7.5 15t17 5t17 7.5t7.5 21.5v334q0 16 -7.5 21.5t-17 7.5t-17 5t-7.5 15v24h181v-407zM66 539l101 154q19 30 47 30q16 0 31 -11.5t15 -33.5q0 -15 -9 -26.5t-25 -25.5l-104 -87h-56z" />
    <glyph glyph-name="icircumflex" unicode="&#xee;" horiz-adv-x="284" 
d="M208 73q0 -16 7.5 -21.5t17 -7.5t17 -5t7.5 -15v-24h-230v24q0 12 7.5 15t17 5t17 7.5t7.5 21.5v334q0 16 -7.5 21.5t-17 7.5t-17 5t-7.5 15v24h181v-407zM228 539l-91 107l-91 -107h-50l95 174h92l95 -174h-50z" />
    <glyph glyph-name="idieresis" unicode="&#xef;" horiz-adv-x="284" 
d="M208 73q0 -16 7.5 -21.5t17 -7.5t17 -5t7.5 -15v-24h-230v24q0 12 7.5 15t17 5t17 7.5t7.5 21.5v334q0 16 -7.5 21.5t-17 7.5t-17 5t-7.5 15v24h181v-407zM162 612q0 27 19 46t46 19t46 -19t19 -46t-19 -46t-46 -19t-46 19t-19 46zM-18 612q0 27 19 46t46 19t46 -19
t19 -46t-19 -46t-46 -19t-46 19t-19 46z" />
    <glyph glyph-name="eth" unicode="&#xf0;" 
d="M250 32q42 0 57 49.5t15 143.5t-15 143.5t-57 49.5t-57 -49.5t-15 -143.5t15 -143.5t57 -49.5zM111 580l85 57q-14 11 -29.5 18.5t-29 14t-22 12t-8.5 12.5v40q89 -16 150 -56l85 56l37 -49l-70 -47q40 -32 70.5 -76.5t51 -95.5t31 -105t10.5 -103q0 -72 -19 -123.5
t-50 -84.5t-71 -48.5t-82 -15.5q-53 0 -94 21.5t-69.5 56t-43.5 77t-15 84.5t15 84.5t43.5 77t69.5 56t94 21.5q24 0 47 -5q-5 37 -18 71.5t-37 63.5l-95 -64z" />
    <glyph glyph-name="ntilde" unicode="&#xf1;" horiz-adv-x="537" 
d="M76 407q0 16 -7.5 21.5t-17 7.5t-17 5t-7.5 15v24h181v-38q29 25 59 38.5t65 13.5q57 0 93 -38t36 -111v-272q0 -16 7.5 -21.5t17 -7.5t17 -5t7.5 -15v-24h-223v24q0 12 6.5 15t14.5 5t14.5 7.5t6.5 21.5v278q0 77 -49 77q-23 0 -41 -14.5t-31 -31.5v-309
q0 -16 6.5 -21.5t14.5 -7.5t14.5 -5t6.5 -15v-24h-223v24q0 12 7.5 15t17 5t17 7.5t7.5 21.5v334zM424 683q-2 -19 -6.5 -40.5t-15.5 -40t-30.5 -31t-50.5 -12.5q-19 0 -37 7.5t-34.5 17t-30.5 17t-26 7.5q-20 0 -29.5 -14t-13.5 -37h-36q3 23 10 45.5t19 40.5t29 29t40 11
q20 0 35.5 -8t29.5 -17t29.5 -17t35.5 -8q23 0 32.5 16t13.5 34h36z" />
    <glyph glyph-name="ograve" unicode="&#xf2;" 
d="M250 494q48 0 88.5 -19.5t70.5 -53.5t46.5 -80.5t16.5 -100.5t-16.5 -100.5t-46.5 -80.5t-70.5 -53.5t-88.5 -19.5t-88.5 19.5t-70.5 53.5t-46.5 80.5t-16.5 100.5t16.5 100.5t46.5 80.5t70.5 53.5t88.5 19.5zM250 32q23 0 37.5 15t22 42.5t10 66t2.5 85.5q0 46 -2.5 84
t-10 65.5t-22 42.5t-37.5 15t-37.5 -15t-22 -42.5t-10 -65.5t-2.5 -84q0 -47 2.5 -85.5t10 -66t22 -42.5t37.5 -15zM265 539l-104 87q-16 14 -25 25.5t-9 26.5q0 22 15 33.5t31 11.5q27 0 47 -30l101 -154h-56z" />
    <glyph glyph-name="oacute" unicode="&#xf3;" 
d="M250 494q48 0 88.5 -19.5t70.5 -53.5t46.5 -80.5t16.5 -100.5t-16.5 -100.5t-46.5 -80.5t-70.5 -53.5t-88.5 -19.5t-88.5 19.5t-70.5 53.5t-46.5 80.5t-16.5 100.5t16.5 100.5t46.5 80.5t70.5 53.5t88.5 19.5zM250 32q23 0 37.5 15t22 42.5t10 66t2.5 85.5q0 46 -2.5 84
t-10 65.5t-22 42.5t-37.5 15t-37.5 -15t-22 -42.5t-10 -65.5t-2.5 -84q0 -47 2.5 -85.5t10 -66t22 -42.5t37.5 -15zM179 539l101 154q19 30 47 30q16 0 31 -11.5t15 -33.5q0 -15 -9 -26.5t-25 -25.5l-104 -87h-56z" />
    <glyph glyph-name="ocircumflex" unicode="&#xf4;" 
d="M250 494q48 0 88.5 -19.5t70.5 -53.5t46.5 -80.5t16.5 -100.5t-16.5 -100.5t-46.5 -80.5t-70.5 -53.5t-88.5 -19.5t-88.5 19.5t-70.5 53.5t-46.5 80.5t-16.5 100.5t16.5 100.5t46.5 80.5t70.5 53.5t88.5 19.5zM250 32q23 0 37.5 15t22 42.5t10 66t2.5 85.5q0 46 -2.5 84
t-10 65.5t-22 42.5t-37.5 15t-37.5 -15t-22 -42.5t-10 -65.5t-2.5 -84q0 -47 2.5 -85.5t10 -66t22 -42.5t37.5 -15zM341 539l-91 107l-91 -107h-50l95 174h92l95 -174h-50z" />
    <glyph glyph-name="otilde" unicode="&#xf5;" 
d="M250 494q48 0 88.5 -19.5t70.5 -53.5t46.5 -80.5t16.5 -100.5t-16.5 -100.5t-46.5 -80.5t-70.5 -53.5t-88.5 -19.5t-88.5 19.5t-70.5 53.5t-46.5 80.5t-16.5 100.5t16.5 100.5t46.5 80.5t70.5 53.5t88.5 19.5zM250 32q23 0 37.5 15t22 42.5t10 66t2.5 85.5q0 46 -2.5 84
t-10 65.5t-22 42.5t-37.5 15t-37.5 -15t-22 -42.5t-10 -65.5t-2.5 -84q0 -47 2.5 -85.5t10 -66t22 -42.5t37.5 -15zM405 683q-2 -19 -6.5 -40.5t-15.5 -40t-30.5 -31t-50.5 -12.5q-19 0 -37 7.5t-34.5 17t-30.5 17t-26 7.5q-20 0 -29.5 -14t-13.5 -37h-36q3 23 10 45.5
t19 40.5t29 29t40 11q20 0 35.5 -8t29.5 -17t29.5 -17t35.5 -8q23 0 32.5 16t13.5 34h36z" />
    <glyph glyph-name="odieresis" unicode="&#xf6;" 
d="M250 494q48 0 88.5 -19.5t70.5 -53.5t46.5 -80.5t16.5 -100.5t-16.5 -100.5t-46.5 -80.5t-70.5 -53.5t-88.5 -19.5t-88.5 19.5t-70.5 53.5t-46.5 80.5t-16.5 100.5t16.5 100.5t46.5 80.5t70.5 53.5t88.5 19.5zM250 32q23 0 37.5 15t22 42.5t10 66t2.5 85.5q0 46 -2.5 84
t-10 65.5t-22 42.5t-37.5 15t-37.5 -15t-22 -42.5t-10 -65.5t-2.5 -84q0 -47 2.5 -85.5t10 -66t22 -42.5t37.5 -15zM275 612q0 27 19 46t46 19t46 -19t19 -46t-19 -46t-46 -19t-46 19t-19 46zM95 612q0 27 19 46t46 19t46 -19t19 -46t-19 -46t-46 -19t-46 19t-19 46z" />
    <glyph glyph-name="divide" unicode="&#xf7;" horiz-adv-x="600" 
d="M60 187v106h480v-106h-480zM216 436q0 18 7 33.5t18.5 27t27 18t32.5 6.5q16 0 31.5 -7t26.5 -18.5t18 -27t7 -32.5q0 -15 -7 -30t-18 -27t-26.5 -19t-31.5 -7q-35 0 -60 24.5t-25 58.5zM216 44q0 35 25 59t60 24q16 0 31.5 -6.5t26.5 -18t18 -26.5t7 -32q0 -16 -7 -31
t-18 -27t-26.5 -19.5t-31.5 -7.5q-35 0 -60 25t-25 60z" />
    <glyph glyph-name="oslash" unicode="&#xf8;" 
d="M190 92q8 -29 22 -44.5t38 -15.5q23 0 37.5 15t22 42.5t10 66t2.5 85.5q0 28 -0.5 55t-2.5 47zM303 404q-14 44 -53 44q-23 0 -37.5 -15t-22 -42.5t-10 -65.5t-2.5 -84q0 -21 1 -41t2 -37zM376 452q45 -34 70.5 -88.5t25.5 -123.5q0 -54 -16.5 -100.5t-46.5 -80.5
t-70.5 -53.5t-88.5 -19.5q-57 0 -101 26l-40 -78h-48l53 103q-41 35 -63.5 87t-22.5 116q0 54 16.5 100.5t46.5 80.5t70.5 53.5t88.5 19.5q47 0 89 -20l37 72h49z" />
    <glyph glyph-name="ugrave" unicode="&#xf9;" horiz-adv-x="537" 
d="M329 407q0 16 -7.5 21.5t-17 7.5t-17 5t-7.5 15v24h181v-407q0 -16 7.5 -21.5t17 -7.5t17 -5t7.5 -15v-24h-181v38q-20 -18 -47.5 -35t-72.5 -17q-39 0 -64.5 11.5t-40.5 32.5t-21.5 49.5t-6.5 62.5v265q0 16 -7.5 21.5t-17 7.5t-17 5t-7.5 15v24h181v-347
q0 -34 11 -57.5t40 -23.5q20 0 36 13.5t34 32.5v309zM284 539l-104 87q-16 14 -25 25.5t-9 26.5q0 22 15 33.5t31 11.5q27 0 47 -30l101 -154h-56z" />
    <glyph glyph-name="uacute" unicode="&#xfa;" horiz-adv-x="537" 
d="M329 407q0 16 -7.5 21.5t-17 7.5t-17 5t-7.5 15v24h181v-407q0 -16 7.5 -21.5t17 -7.5t17 -5t7.5 -15v-24h-181v38q-20 -18 -47.5 -35t-72.5 -17q-39 0 -64.5 11.5t-40.5 32.5t-21.5 49.5t-6.5 62.5v265q0 16 -7.5 21.5t-17 7.5t-17 5t-7.5 15v24h181v-347
q0 -34 11 -57.5t40 -23.5q20 0 36 13.5t34 32.5v309zM198 539l101 154q19 30 47 30q16 0 31 -11.5t15 -33.5q0 -15 -9 -26.5t-25 -25.5l-104 -87h-56z" />
    <glyph glyph-name="ucircumflex" unicode="&#xfb;" horiz-adv-x="537" 
d="M329 407q0 16 -7.5 21.5t-17 7.5t-17 5t-7.5 15v24h181v-407q0 -16 7.5 -21.5t17 -7.5t17 -5t7.5 -15v-24h-181v38q-20 -18 -47.5 -35t-72.5 -17q-39 0 -64.5 11.5t-40.5 32.5t-21.5 49.5t-6.5 62.5v265q0 16 -7.5 21.5t-17 7.5t-17 5t-7.5 15v24h181v-347
q0 -34 11 -57.5t40 -23.5q20 0 36 13.5t34 32.5v309zM360 539l-91 107l-91 -107h-50l95 174h92l95 -174h-50z" />
    <glyph glyph-name="udieresis" unicode="&#xfc;" horiz-adv-x="537" 
d="M329 407q0 16 -7.5 21.5t-17 7.5t-17 5t-7.5 15v24h181v-407q0 -16 7.5 -21.5t17 -7.5t17 -5t7.5 -15v-24h-181v38q-20 -18 -47.5 -35t-72.5 -17q-39 0 -64.5 11.5t-40.5 32.5t-21.5 49.5t-6.5 62.5v265q0 16 -7.5 21.5t-17 7.5t-17 5t-7.5 15v24h181v-347
q0 -34 11 -57.5t40 -23.5q20 0 36 13.5t34 32.5v309zM294 612q0 27 19 46t46 19t46 -19t19 -46t-19 -46t-46 -19t-46 19t-19 46zM114 612q0 27 19 46t46 19t46 -19t19 -46t-19 -46t-46 -19t-46 19t-19 46z" />
    <glyph glyph-name="yacute" unicode="&#xfd;" horiz-adv-x="444" 
d="M46 382q-10 24 -20.5 34t-19 14t-14 6t-5.5 11v33h242v-31q0 -9 -7 -12t-15 -5.5t-15 -7t-7 -16.5q0 -8 3.5 -18t5.5 -17l75 -204h4l64 191q3 10 7 24.5t4 20.5q0 13 -7 18t-15.5 8t-15.5 6t-7 11v32h158v-25q0 -12 -6 -15.5t-14 -7t-18 -11t-17 -28.5l-156 -449
q-11 -30 -25 -58t-33 -50.5t-43 -36t-54 -13.5q-26 0 -43.5 8.5t-28.5 21.5t-16 28.5t-5 29.5q0 32 18.5 51t46.5 19q27 0 41 -17t16 -38q1 -9 4.5 -15t12.5 -6q6 0 12 5t13.5 18t17 36t22.5 58zM151 539l101 154q19 30 47 30q16 0 31 -11.5t15 -33.5q0 -15 -9 -26.5
t-25 -25.5l-104 -87h-56z" />
    <glyph glyph-name="thorn" unicode="&#xfe;" 
d="M197 -127q0 -16 7.5 -21.5t17 -7.5t17 -5t7.5 -15v-24h-230v24q0 12 7.5 15t17 5t17 7.5t7.5 21.5v754q0 16 -7.5 21.5t-17 7.5t-17 5t-7.5 15v24h181v-235q15 12 36 20.5t50 8.5q32 0 64.5 -14.5t58.5 -45.5t42 -79t16 -115t-16.5 -115t-43 -79t-59.5 -45.5t-65 -14.5
q-27 0 -46 5.5t-37 13.5v-132zM197 67q22 -19 46 -19q25 0 40 17.5t22.5 44.5t10 60t2.5 65q0 36 -2.5 71.5t-10 63t-22 45t-39.5 17.5q-17 0 -28 -6.5t-19 -14.5v-344z" />
    <glyph glyph-name="ydieresis" unicode="&#xff;" horiz-adv-x="444" 
d="M46 382q-10 24 -20.5 34t-19 14t-14 6t-5.5 11v33h242v-31q0 -9 -7 -12t-15 -5.5t-15 -7t-7 -16.5q0 -8 3.5 -18t5.5 -17l75 -204h4l64 191q3 10 7 24.5t4 20.5q0 13 -7 18t-15.5 8t-15.5 6t-7 11v32h158v-25q0 -12 -6 -15.5t-14 -7t-18 -11t-17 -28.5l-156 -449
q-11 -30 -25 -58t-33 -50.5t-43 -36t-54 -13.5q-26 0 -43.5 8.5t-28.5 21.5t-16 28.5t-5 29.5q0 32 18.5 51t46.5 19q27 0 41 -17t16 -38q1 -9 4.5 -15t12.5 -6q6 0 12 5t13.5 18t17 36t22.5 58zM247 612q0 27 19 46t46 19t46 -19t19 -46t-19 -46t-46 -19t-46 19t-19 46z
M67 612q0 27 19 46t46 19t46 -19t19 -46t-19 -46t-46 -19t-46 19t-19 46z" />
    <glyph glyph-name="dotlessi" unicode="&#x131;" horiz-adv-x="284" 
d="M208 73q0 -16 7.5 -21.5t17 -7.5t17 -5t7.5 -15v-24h-230v24q0 12 7.5 15t17 5t17 7.5t7.5 21.5v334q0 16 -7.5 21.5t-17 7.5t-17 5t-7.5 15v24h181v-407z" />
    <glyph glyph-name="OE" unicode="&#x152;" horiz-adv-x="897" 
d="M826 507h-24q-18 0 -26 10.5t-13 26t-9.5 34t-14.5 34t-29.5 26t-53.5 10.5h-77v-257h26q24 0 37 5.5t19 13.5t8.5 17.5t5 17.5t8 13.5t18.5 5.5h28v-202h-28q-13 0 -18.5 5.5t-8 13.5t-5 17.5t-8.5 17.5t-19 13.5t-37 5.5h-26v-283h85q39 0 63 8t38 20.5t20.5 28
t9.5 31.5q2 11 4 23t6 22.5t12 17.5t22 7h24v-210h-317q-32 0 -59.5 -2.5t-53.5 -4.5t-50 -4.5t-50 -2.5q-55 0 -109 19.5t-96.5 62t-68.5 111.5t-26 168q0 90 21 158.5t59.5 115t93 70t120.5 23.5q19 0 39 -2t43 -5t47.5 -5t52.5 -2h206q31 0 60 2t51 12v-207zM433 526
q0 27 -3 51.5t-14 43.5t-32 30t-57 11q-44 0 -72.5 -23t-45 -64.5t-23.5 -99t-7 -127.5q0 -68 7 -125t24 -98t45.5 -64t72.5 -23q35 0 56 11.5t32 31t14 45t3 52.5v348z" />
    <glyph glyph-name="oe" unicode="&#x153;" horiz-adv-x="781" 
d="M598 302v31q0 59 -15.5 82t-45.5 23q-22 0 -36.5 -10.5t-23.5 -29t-12.5 -43.5t-3.5 -53h137zM28 240q0 54 16.5 100.5t46.5 80.5t70.5 53.5t88.5 19.5q44 0 76.5 -13t70.5 -44q11 9 24 19.5t29.5 18.5t36.5 13.5t46 5.5q55 0 94 -19t63.5 -51t36 -73.5t11.5 -85.5v-19
h-277v-39q0 -29 5.5 -58.5t18 -53t33 -38.5t50.5 -15q29 0 51 9.5t37.5 25.5t26 36t16.5 40l43 -31q-46 -136 -186 -136q-29 0 -52 5.5t-42 15.5t-35.5 22.5t-31.5 26.5q-25 -25 -60.5 -47.5t-84.5 -22.5q-48 0 -88.5 19.5t-70.5 53.5t-46.5 80.5t-16.5 100.5zM321 241
q0 46 -2.5 84t-11 65.5t-23.5 42.5t-40 15t-40 -15t-23 -42.5t-10.5 -65.5t-2.5 -84q0 -47 2.5 -85.5t11 -66t23.5 -42.5t40 -15t40 15t23 42.5t10.5 66t2.5 85.5z" />
    <glyph glyph-name="Scaron" unicode="&#x160;" horiz-adv-x="556" 
d="M53 244h22q19 0 29 -15.5t18 -38t16 -49.5t22.5 -49.5t38 -38t62.5 -15.5q56 0 86 35t30 86q0 44 -24 71.5t-59.5 47.5t-77 38t-77 43t-59.5 61.5t-24 94.5q0 41 16 77.5t43.5 63.5t64 42.5t77.5 15.5q29 0 49.5 -5.5t34.5 -12.5t24 -12.5t18 -5.5q13 0 18.5 5t8.5 10h46
v-208h-30q-17 0 -27 13t-17.5 33t-15 42.5t-19.5 42.5t-30.5 33t-47.5 13q-39 0 -63 -23.5t-24 -61.5q0 -39 24 -63.5t59.5 -44t77 -38t77 -44.5t59.5 -64t24 -97q0 -38 -13.5 -80.5t-42.5 -78t-73.5 -58.5t-107.5 -23q-31 0 -55 5.5t-41.5 11.5t-28.5 11.5t-17 5.5
q-16 0 -19 -14h-52v238zM187 933l91 -107l91 107h50l-95 -174h-92l-95 174h50z" />
    <glyph glyph-name="scaron" unicode="&#x161;" horiz-adv-x="444" 
d="M53 349q0 31 13.5 57.5t37 46t55.5 30.5t68 11q22 0 49 -4.5t50.5 -15.5t39 -28.5t15.5 -42.5q0 -28 -16.5 -45.5t-45.5 -17.5q-26 0 -42 13t-16 38q0 11 2.5 18.5t2.5 15.5q0 11 -9.5 17t-33.5 6q-20 0 -35 -12t-15 -39q0 -25 17 -42t42 -31t54.5 -27t54.5 -30.5t42 -42
t17 -60.5q0 -43 -16 -76t-43.5 -55.5t-64.5 -34.5t-78 -12q-36 0 -66.5 8t-53 22t-35 34.5t-12.5 45.5q0 28 16.5 49t51.5 21q27 0 43.5 -16t16.5 -43q0 -11 -4.5 -21.5t-4.5 -22.5q0 -11 10 -21t36 -10q39 0 61.5 20t22.5 53q0 24 -17 41t-42 31t-54.5 28t-54.5 33
t-42 45.5t-17 65.5zM131 713l91 -107l91 107h50l-95 -174h-92l-95 174h50z" />
    <glyph glyph-name="Ydieresis" unicode="&#x178;" 
d="M323 87q0 -21 6.5 -28.5t14 -10t14 -4.5t6.5 -13v-31h-228v31q0 11 6.5 13t14 4.5t14 10t6.5 28.5v222l-128 278q-14 30 -26.5 42.5t-22.5 18t-15.5 8t-5.5 12.5v32h261v-32q0 -9 -7.5 -12.5t-17 -6.5t-17 -8.5t-7.5 -17.5q0 -8 5.5 -23.5t22.5 -50.5l74 -154l72 145
q14 30 22 49.5t8 31.5q0 13 -7.5 18.5t-17 9t-17 7t-7.5 12.5v32h176v-28q0 -12 -5 -15t-13 -6.5t-20 -13.5t-25 -37l-136 -270v-243zM275 832q0 27 19 46t46 19t46 -19t19 -46t-19 -46t-46 -19t-46 19t-19 46zM95 832q0 27 19 46t46 19t46 -19t19 -46t-19 -46t-46 -19
t-46 19t-19 46z" />
    <glyph glyph-name="Zcaron" unicode="&#x17d;" 
d="M170 62h85q52 0 81.5 11.5t46 29t23 38t12.5 38t14.5 29t29.5 11.5h26v-219h-464v78l295 570h-55q-45 0 -72.5 -10.5t-43 -26t-22 -34t-12 -34t-12 -26t-20.5 -10.5h-26v207q20 -8 39 -11q21 -3 44 -3h333v-44zM159 933l91 -107l91 107h50l-95 -174h-92l-95 174h50z" />
    <glyph glyph-name="zcaron" unicode="&#x17e;" horiz-adv-x="444" 
d="M412 418l-241 -366h82q32 0 50.5 8.5t29.5 20.5t17 27t11.5 27t13 20.5t23.5 8.5h19v-164h-396v51l245 377h-60q-31 0 -49.5 -7.5t-29 -19.5t-16 -25t-10 -25t-12 -19.5t-21.5 -7.5h-22v156h366v-62zM131 713l91 -107l91 107h50l-95 -174h-92l-95 174h50z" />
    <glyph glyph-name="florin" unicode="&#x192;" 
d="M74 412h88q11 52 24.5 105.5t37.5 97t62 71.5t98 28q50 0 83 -21.5t33 -58.5q0 -27 -16.5 -44t-45.5 -17q-28 0 -40 13.5t-17 29t-8 29t-13 13.5q-11 0 -18.5 -18.5t-13.5 -51.5t-12.5 -78t-13.5 -98h104l-11 -56h-101l-10 -76q-9 -66 -18 -128t-22 -117t-30.5 -100.5
t-43.5 -78.5t-61 -51.5t-83 -18.5q-51 0 -81 20.5t-30 62.5q0 25 16 42.5t45 17.5q25 0 37 -13.5t18 -30t10 -30t14 -13.5q17 0 25 30.5t15 76.5l58 407h-89z" />
    <glyph glyph-name="circumflex" unicode="&#x2c6;" horiz-adv-x="278" 
d="M230 539l-91 107l-91 -107h-50l95 174h92l95 -174h-50z" />
    <glyph glyph-name="caron" unicode="&#x2c7;" horiz-adv-x="278" 
d="M48 713l91 -107l91 107h50l-95 -174h-92l-95 174h50z" />
    <glyph glyph-name="ring" unicode="&#x2da;" horiz-adv-x="278" 
d="M33 645q0 45 30.5 75.5t75.5 30.5t75.5 -30.5t30.5 -75.5t-30.5 -75.5t-75.5 -30.5t-75.5 30.5t-30.5 75.5zM81 645q0 -24 17 -41t41 -17t41 17t17 41t-17 41t-41 17t-41 -17t-17 -41z" />
    <glyph glyph-name="tilde" unicode="&#x2dc;" horiz-adv-x="278" 
d="M294 683q-2 -19 -6.5 -40.5t-15.5 -40t-30.5 -31t-50.5 -12.5q-19 0 -37 7.5t-34.5 17t-30.5 17t-26 7.5q-20 0 -29.5 -14t-13.5 -37h-36q3 23 10 45.5t19 40.5t29 29t40 11q20 0 35.5 -8t29.5 -17t29.5 -17t35.5 -8q23 0 32.5 16t13.5 34h36z" />
    <glyph glyph-name="endash" unicode="&#x2013;" 
d="M0 199v82h500v-82h-500z" />
    <glyph glyph-name="emdash" unicode="&#x2014;" horiz-adv-x="1000" 
d="M0 199v82h1000v-82h-1000z" />
    <glyph glyph-name="quoteleft" unicode="&#x2018;" horiz-adv-x="222" 
d="M173 693q-28 -26 -48 -52t-20 -34t12 -12t26.5 -13t26.5 -25.5t12 -48.5q0 -12 -3.5 -26.5t-12.5 -26.5t-23.5 -20.5t-35.5 -8.5q-22 0 -37 9t-24.5 23t-13.5 31t-4 34q0 54 26 99.5t87 101.5z" />
    <glyph glyph-name="quoteright" unicode="&#x2019;" horiz-adv-x="222" 
d="M49 447q28 26 48 52t20 34q0 7 -12 11.5t-26.5 13.5t-26.5 25.5t-12 48.5q0 12 3.5 26.5t12.5 26.5t23.5 20.5t35.5 8.5q22 0 37 -9t24.5 -23t13.5 -31.5t4 -33.5q0 -54 -26 -99.5t-87 -101.5z" />
    <glyph glyph-name="quotesinglbase" unicode="&#x201a;" horiz-adv-x="222" 
d="M49 -120q28 26 48 52t20 34q0 7 -12 11.5t-26.5 13.5t-26.5 25.5t-12 48.5q0 12 3.5 26.5t12.5 26.5t23.5 20.5t35.5 8.5q22 0 37 -9t24.5 -23t13.5 -31.5t4 -33.5q0 -54 -26 -99.5t-87 -101.5z" />
    <glyph glyph-name="quotedblleft" unicode="&#x201c;" horiz-adv-x="426" 
d="M173 693q-28 -26 -48 -52t-20 -34t12 -12t26.5 -13t26.5 -25.5t12 -48.5q0 -12 -3.5 -26.5t-12.5 -26.5t-23.5 -20.5t-35.5 -8.5q-22 0 -37 9t-24.5 23t-13.5 31t-4 34q0 54 26 99.5t87 101.5zM377 693q-28 -26 -48 -52t-20 -34t12 -12t26.5 -13t26.5 -25.5t12 -48.5
q0 -12 -3.5 -26.5t-12.5 -26.5t-23.5 -20.5t-35.5 -8.5q-22 0 -37 9t-24.5 23t-13.5 31t-4 34q0 54 26 99.5t87 101.5z" />
    <glyph glyph-name="quotedblright" unicode="&#x201d;" horiz-adv-x="426" 
d="M253 447q28 26 48 52t20 34q0 7 -12 11.5t-26.5 13.5t-26.5 25.5t-12 48.5q0 12 3.5 26.5t12.5 26.5t23.5 20.5t35.5 8.5q22 0 37 -9t24.5 -23t13.5 -31.5t4 -33.5q0 -54 -26 -99.5t-87 -101.5zM49 447q28 26 48 52t20 34q0 7 -12 11.5t-26.5 13.5t-26.5 25.5t-12 48.5
q0 12 3.5 26.5t12.5 26.5t23.5 20.5t35.5 8.5q22 0 37 -9t24.5 -23t13.5 -31.5t4 -33.5q0 -54 -26 -99.5t-87 -101.5z" />
    <glyph glyph-name="quotedblbase" unicode="&#x201e;" horiz-adv-x="426" 
d="M253 -120q28 26 48 52t20 34q0 7 -12 11.5t-26.5 13.5t-26.5 25.5t-12 48.5q0 12 3.5 26.5t12.5 26.5t23.5 20.5t35.5 8.5q22 0 37 -9t24.5 -23t13.5 -31.5t4 -33.5q0 -54 -26 -99.5t-87 -101.5zM49 -120q28 26 48 52t20 34q0 7 -12 11.5t-26.5 13.5t-26.5 25.5t-12 48.5
q0 12 3.5 26.5t12.5 26.5t23.5 20.5t35.5 8.5q22 0 37 -9t24.5 -23t13.5 -31.5t4 -33.5q0 -54 -26 -99.5t-87 -101.5z" />
    <glyph glyph-name="dagger" unicode="&#x2020;" 
d="M231 -124q0 40 -1 93.5t-7.5 110t-20.5 109t-39 91.5q25 33 46.5 73.5t21.5 83.5v22q-21 0 -40 -7.5t-36 -16.5q-18 -10 -35 -17.5t-34 -7.5q-28 0 -44.5 20t-16.5 46t16.5 46t44.5 20q17 0 34 -7.5t34.5 -17t36.5 -17t40 -7.5q0 25 -8 46.5t-18 41t-18 38t-8 38.5
q0 9 4 19.5t12.5 18.5t22 13.5t32.5 5.5q37 0 54 -19t17 -38q0 -20 -8 -38.5t-18 -38t-18 -41t-8 -46.5q21 0 40 7.5t36.5 17t34.5 17t34 7.5q28 0 44.5 -20t16.5 -46t-16.5 -46t-44.5 -20q-17 0 -34 7.5t-35 17.5q-17 9 -36 16.5t-40 7.5v-22q0 -43 21.5 -83.5t46.5 -73.5
q-26 -39 -39.5 -91.5t-20 -109t-7.5 -110t-1 -93.5h-38z" />
    <glyph glyph-name="daggerdbl" unicode="&#x2021;" 
d="M250 714q37 0 54 -19t17 -38q0 -20 -8 -38.5t-18 -38t-18 -41t-8 -46.5q21 0 40 7.5t36.5 17t34.5 17t34 7.5q28 0 44.5 -20t16.5 -46t-16.5 -46t-44.5 -20q-17 0 -34 7.5t-35 17.5q-17 9 -36 16.5t-40 7.5v-13q0 -16 6 -35t15.5 -38.5t21.5 -38.5t25 -37
q-13 -18 -25 -38t-21.5 -39.5t-15.5 -38.5t-6 -35v-15q21 0 40 7.5t36 16.5q18 10 35 17.5t34 7.5q28 0 44.5 -20t16.5 -46t-16.5 -46t-44.5 -20q-17 0 -34 7.5t-34.5 17t-36.5 17t-40 7.5q0 -26 8 -47t18 -40.5t18 -38t8 -38.5q0 -19 -17 -38t-54 -19q-19 0 -32.5 5.5
t-22 13.5t-12.5 18.5t-4 19.5q0 20 8 38.5t18 38t18 40.5t8 47q-21 0 -40 -7.5t-36.5 -17t-34.5 -17t-34 -7.5q-28 0 -44.5 20t-16.5 46t16.5 46t44.5 20q17 0 34 -7.5t35 -17.5q17 -9 36 -16.5t40 -7.5v15q0 16 -6 34.5t-16 38t-23 39t-26 37.5q13 18 26 38t23 39.5
t16 38.5t6 35v13q-21 0 -40 -7.5t-36 -16.5q-18 -10 -35 -17.5t-34 -7.5q-28 0 -44.5 20t-16.5 46t16.5 46t44.5 20q17 0 34 -7.5t34.5 -17t36.5 -17t40 -7.5q0 25 -8 46.5t-18 41t-18 38t-8 38.5q0 9 4 19.5t12.5 18.5t22 13.5t32.5 5.5z" />
    <glyph glyph-name="bullet" unicode="&#x2022;" 
d="M75 350q0 36 13.5 68t37.5 56t56 37.5t68 13.5t68 -13.5t56 -37.5t37.5 -56t13.5 -68t-13.5 -68t-37.5 -56t-56 -37.5t-68 -13.5t-68 13.5t-56 37.5t-37.5 56t-13.5 68z" />
    <glyph glyph-name="ellipsis" unicode="&#x2026;" horiz-adv-x="1000" 
d="M92 80q0 39 21.5 63.5t53.5 24.5t53.5 -24.5t21.5 -63.5t-21.5 -63.5t-53.5 -24.5t-53.5 24.5t-21.5 63.5zM425 80q0 39 21.5 63.5t53.5 24.5t53.5 -24.5t21.5 -63.5t-21.5 -63.5t-53.5 -24.5t-53.5 24.5t-21.5 63.5zM758 80q0 39 21.5 63.5t53.5 24.5t53.5 -24.5
t21.5 -63.5t-21.5 -63.5t-53.5 -24.5t-53.5 24.5t-21.5 63.5z" />
    <glyph glyph-name="perthousand" unicode="&#x2030;" horiz-adv-x="1000" 
d="M155 309q26 0 34.5 50t8.5 140t-8.5 139.5t-34.5 49.5t-34.5 -49.5t-8.5 -139.5t8.5 -140t34.5 -50zM155 -14h-59l414 728h56zM527 12q26 0 34.5 50t8.5 140t-8.5 139.5t-34.5 49.5t-34.5 -49.5t-8.5 -139.5t8.5 -140t34.5 -50zM154 283q-37 0 -63 16.5t-42.5 45
t-24.5 68t-8 86.5q0 46 8 85.5t24.5 68t42.5 45t63 16.5t63.5 -16.5t43.5 -45t25 -68t8 -85.5q0 -47 -8 -86.5t-25 -68t-43.5 -45t-63.5 -16.5zM526 -14q-37 0 -63 16.5t-42.5 45t-24.5 68t-8 86.5q0 46 8 85.5t24.5 68t42.5 45t63 16.5t63.5 -16.5t43.5 -45t25 -68t8 -85.5
q0 -47 -8 -86.5t-25 -68t-43.5 -45t-63.5 -16.5zM845 12q26 0 34.5 50t8.5 140t-8.5 139.5t-34.5 49.5t-34.5 -49.5t-8.5 -139.5t8.5 -140t34.5 -50zM844 -14q-37 0 -63 16.5t-42.5 45t-24.5 68t-8 86.5q0 46 8 85.5t24.5 68t42.5 45t63 16.5t63.5 -16.5t43.5 -45t25 -68
t8 -85.5q0 -47 -8 -86.5t-25 -68t-43.5 -45t-63.5 -16.5z" />
    <glyph glyph-name="guilsinglleft" unicode="&#x2039;" horiz-adv-x="315" 
d="M27 235v10l218 176q13 10 19 10q7 0 10 -5.5t3 -11.5q0 -8 -8.5 -24t-22 -34.5t-28.5 -38.5t-28.5 -36.5t-22 -28t-8.5 -12.5q0 -2 8.5 -12.5t22 -27t28.5 -36t28.5 -38.5t22 -35t8.5 -25q0 -6 -3 -11.5t-10 -5.5q-4 0 -7.5 2t-11.5 9z" />
    <glyph glyph-name="guilsinglright" unicode="&#x203a;" horiz-adv-x="315" 
d="M70 60q-8 -7 -11.5 -9t-7.5 -2q-7 0 -10 5.5t-3 11.5q0 9 8.5 25t22 35t28.5 38.5t28.5 36t22 27t8.5 12.5q0 1 -8.5 12.5t-22 28t-28.5 36.5t-28.5 38.5t-22 34.5t-8.5 24q0 6 3 11.5t10 5.5q6 0 19 -10l218 -176v-10z" />
    <glyph glyph-name="Euro" unicode="&#x20ac;" 
d="M229 273q2 -47 7.5 -88t16.5 -71.5t28 -48t43 -17.5q28 0 46.5 16.5t29.5 40.5t16.5 49.5t7.5 43.5l55 -17q-5 -46 -19.5 -82t-36 -61t-50 -38.5t-59.5 -13.5q-52 0 -92 23t-69.5 62t-47 91t-24.5 111h-68v56h64v20q0 13 0.5 26t1.5 26h-66v56h73q9 53 27 100t45 82
t62 55t78 20q24 0 42.5 -6.5t32.5 -15t23 -15t13 -6.5q8 0 11 3.5t5 9.5h42v-196h-36q-17 0 -24 23.5t-14 58.5q-4 19 -9.5 36.5t-13.5 31t-20 21t-28 7.5q-26 0 -43 -16t-27.5 -44t-15.5 -66.5t-7 -82.5h132v-56h-134v-72h134v-56h-132z" />
    <glyph glyph-name="trademark" unicode="&#x2122;" horiz-adv-x="1000" 
d="M257 364q0 -12 1 -19.5t5.5 -12t15 -7t29.5 -3.5v-26h-217v26q19 1 30 3.5t15.5 7t5.5 12t1 19.5v310h-44q-29 0 -43.5 -18.5t-19.5 -43.5h-26v88h379v-88h-26q-5 25 -19.5 43.5t-43.5 18.5h-43v-310zM535 575h-4v-180q0 -21 1 -34.5t6 -22t15.5 -12t29.5 -4.5v-26h-135
v26q18 1 28.5 4.5t15.5 12t6 22t1 34.5v226q-12 25 -30.5 39t-41.5 14v26h157l131 -270l137 270h136v-26q-18 -1 -28 -3.5t-15 -7t-6 -12.5t-1 -19v-268q0 -12 1 -19.5t5.5 -12t15 -7t29.5 -3.5v-26h-216v26q19 1 29.5 3.5t15 7t5.5 12t1 19.5v211h-5l-139 -278h-16z" />
    </font>
</defs>
</svg>
